<svg width="265" height="108" viewBox="0 0 265 108" fill="none" xmlns="http://www.w3.org/2000/svg">
<mask id="mask0_240_1364" style="mask-type:alpha" maskUnits="userSpaceOnUse" x="0" y="0" width="265" height="108">
<rect width="265" height="108" fill="#D9D9D9"/>
</mask>
<g mask="url(#mask0_240_1364)">
<path d="M246.128 92.489C246.165 90.9877 246.487 84.6332 247.264 83.669L247.507 83.6503C248.177 84.3356 248.689 89.1234 248.669 90.2123C248.638 91.8616 248.055 93.458 248.338 95.1151C248.703 97.2611 250.023 99.1015 250.668 101.16C251.883 105.028 253.194 115.077 249.779 118.095C249.335 118.487 248.653 118.859 248.042 118.822C247.763 118.806 247.407 118.714 247.196 118.52C246.4 117.786 245.835 104.277 245.784 102.184C245.745 100.587 245.964 97.0838 245.552 95.6642C245.211 94.4861 243.977 92.7607 242.626 92.6743C242.114 92.6417 241.658 92.9512 241.3 93.2823C238.218 96.1309 235.319 105.65 235.271 109.895C235.251 111.546 236.027 113.151 236.454 114.719C237.685 119.239 238.93 125.485 237.93 130.098C237.148 130.639 236.483 130.917 235.586 131.236C233.668 129.753 233.109 126.899 232.708 124.614C231.938 120.219 232.453 115.522 232.497 111.263C232.516 109.424 228.598 102.269 226.181 102.444C225.539 102.436 223.402 104.353 222.566 104.932C222.875 106.157 222.811 106.206 222.603 107.511C223.005 107.73 223.247 107.538 223.382 107.587C223.979 108.048 224.758 110.599 224.902 111.243C225.862 115.523 226.053 121.073 224.072 125.084C222.799 127.66 219.673 128.341 217.166 127.255C216.638 126.361 215.855 124.955 215.692 123.919C214.8 118.271 216.06 110.357 219.256 105.626C217.536 102.66 215.429 100.722 212.331 99.3133C208.604 100.988 207.021 104.063 205.335 107.774C204.32 110.009 205.994 113.176 206.137 115.516C206.371 119.332 207.971 131.423 203.786 133.574C202.968 133.995 201.668 133.774 200.761 133.527C200.257 132.64 199.588 131.495 199.396 130.479C198.05 123.391 199.681 115.639 201.761 108.888C201.465 108.014 198.406 100.43 196.8 101.597C194.066 103.584 191.459 109.213 190.227 112.39C188.127 117.876 187.422 123.5 187.203 129.337C187.132 131.188 187.024 133.519 186.631 135.288C186.489 135.923 184.611 135.456 184.19 135.323C183.817 132.734 184.304 131.03 184.069 129.348C183.183 122.98 181.159 114.874 178.081 109.203C177.526 108.181 176.297 107.171 175.44 106.497C171.507 109.381 170.48 112.313 169.035 116.904C168.64 118.156 168.455 119.407 167.887 120.603C168.946 125.202 169.249 129.8 168.833 134.501C168.589 137.275 168.912 140.311 165.053 139.444C163.119 136.313 163.947 129.45 164.027 125.734C164.06 124.229 165.152 121.545 165.029 119.861C163.982 114.93 161.56 109.705 157.007 107.511C151.374 109.087 150.211 117.071 149.952 122.005C149.746 125.941 151.584 130.724 150.929 134.697C150.715 135.995 148.554 135.754 147.719 135.57C147.297 133.244 146.794 130.839 146.633 128.467C146.422 125.311 146.919 121.939 146.365 118.836C145.739 115.329 144.33 112.056 142.822 108.853C142.47 108.108 143.795 107.789 142.706 106.656C142.324 106.468 142.05 106.564 141.619 106.627C140.895 106.296 139.761 104.927 139.096 104.382C138.386 103.799 137.629 103.397 136.817 102.96C132.1 105.43 129.92 112.168 128.191 116.856C129.784 121.426 130.863 126.382 130.973 131.307C131.005 132.762 130.652 134.422 130.531 135.881C130.272 137.542 130.126 140.775 128.125 141.217C125.043 141.898 123.805 138.309 123.433 135.969C122.673 130.919 122.851 125.772 123.957 120.785C124.301 119.278 124.8 117.808 125.188 116.317C124.133 114.243 119.847 105.541 116.699 107.542C112.592 110.152 110.164 115.752 108.974 120.297C107.761 124.649 109.038 126.307 109.807 130.371C110.346 133.223 110.493 137.631 109.81 140.397L108.298 140.977C107.172 140.57 106.286 140.152 105.85 138.938C104.627 135.526 104.595 130.576 104.805 126.936C105.354 123.137 105.067 121.269 103.236 117.826C101.545 114.509 99.5548 110.09 95.9681 108.476C93.771 107.488 91.8968 112.267 91.5794 113.816C90.6786 118.217 90.2239 122.129 91.1849 126.558C91.7295 129.066 92.8227 132.334 92.2305 134.806C92.0891 135.325 90.3172 135.153 89.8817 135.131C87.769 131.106 88.5655 126.555 87.4615 122.329C85.7299 115.701 83.1361 105.055 76.5156 101.649C73.8465 100.276 71.8245 107.864 71.4012 109.642C71.3037 110.061 71.2173 110.482 71.1423 110.905C71.9947 113.15 72.8818 115.37 73.5936 117.664C75.0542 122.374 78.6042 136.243 76.6319 140.671C76.32 141.372 75.8965 141.96 75.1506 142.221C74.9386 142.295 74.7223 142.348 74.504 142.4C72.2077 141.448 71.3916 140.273 70.462 138.01C67.4937 130.785 66.6656 118.445 68.2355 110.796C66.5302 107.08 64.3705 103.448 60.8337 101.198C60.3417 100.885 59.8267 100.517 59.2739 100.324C58.8027 100.16 58.3705 100.137 57.926 100.393C56.484 101.223 55.1764 103.827 54.7914 105.401C54.2895 107.454 58.2366 115.333 57.3066 117.894C57.152 118.319 56.7507 118.675 56.4228 118.973L55.999 120.607C55.0724 118.276 54.9106 114.356 54.1389 112.689C54.0413 112.241 53.9242 111.436 53.5553 111.184C53.3738 111.532 53.4288 111.925 53.432 112.333C53.0854 120.766 53.0251 127.62 56.4492 135.56C56.2658 132.149 56.5022 128.689 56.1365 125.263C56.0665 124.608 57.1704 124.229 57.7031 124.135C59.7866 124.832 58.8396 136.755 58.2968 138.703C56.7888 139.136 56.1669 139.088 54.6086 138.769C50.6903 133.143 49.7588 122.93 49.9579 116.15C50.0361 113.486 50.6625 107.502 51.8204 105.115C49.9096 102.272 47.4714 98.217 44.1442 97.1543C42.549 97.6712 41.658 98.8044 40.9972 100.288C39.7128 103.172 37.9745 107.472 39.0447 110.521C41.7186 118.139 44.5284 126.352 43.8725 134.505C43.7826 135.594 43.5388 136.579 43.1269 137.594C42.529 139.067 41.155 139.228 39.8003 138.575C38.1131 137.763 37.3939 135.385 36.878 133.729C35.0562 127.873 34.0774 115.036 35.6828 109.242C33.308 104.938 31.7088 101.733 27.644 98.7538C27.2969 99.3161 26.6055 100.421 26.3764 101.043C25.3476 103.834 24.2343 108.88 24.8725 111.779C25.09 112.768 26.6408 115.717 27.1321 116.954C29.1787 122.109 32.5869 132.004 30.753 137.383L29.2804 137.915C27.5286 137.485 26.7735 137.362 25.8449 135.612C21.8547 128.098 21.1643 119.355 20.9391 111.014C20.9104 109.95 17.6432 106.473 16.6846 106.006C15.7531 106.295 14.6548 109.188 14.7953 109.968C15.8849 116.013 19.54 124.143 18.4672 130.331C16.8616 130.601 16.6814 130.614 15.1443 130.178C14.4879 129.24 13.8994 128.405 13.4894 127.277C11.6752 122.289 11.0895 116.766 11.3009 111.483C11.3082 111.298 11.4921 110.813 11.5592 110.638C10.9728 108.208 10.7683 106.175 11.3354 103.752C11.399 103.481 11.408 102.884 11.4712 102.7L11.7239 102.582C12.4004 103.183 12.7574 104.606 13.2487 105.016C14.4169 104.603 15.1392 103.715 16.455 103.801C18.6304 103.943 20.1535 105.282 21.5756 106.797L21.7437 106.785C22.371 103.615 23.1982 95.8232 28.3648 96.895C31.8819 97.6245 34.7727 102.222 36.6124 105.088C36.7053 104.202 36.8384 103.119 37.1674 102.294C38.1103 99.9287 40.3068 95.817 43.0966 95.4585C48.0383 94.8233 50.4198 99.4231 52.8829 102.566C55.1925 96.2455 62.1725 97.8812 65.5949 102.016C66.7107 103.364 68.4367 105.359 69.1918 106.887C69.6638 104.963 71.1235 101.332 73.0049 100.495C81.9838 96.4988 86.5623 110.172 88.2762 116.257C89.1397 112.012 90.7465 105.638 96.4597 106.633C101.423 107.496 104.372 114.677 106.236 118.751C107.762 113.834 112.622 103.833 119.343 105.421C122.476 106.162 124.689 110.27 126.421 112.767C128.338 108.159 132.913 98.7845 139.666 101.716C143.103 103.209 146.432 109.768 147.673 113.33C147.843 113.827 148.008 114.326 148.162 114.828C148.627 111.839 150.077 108.989 152.534 107.111C154.289 105.77 156.915 105.819 158.994 106.183C162.864 106.941 165.206 112.153 166.485 115.372C167.906 111.098 171.75 103.145 177.353 105.006C181.229 106.294 184.283 117.233 185.105 120.796C186.32 114.728 188.117 108.661 191.824 103.607C193.439 101.404 195.425 99.1002 198.502 99.7332C201.063 100.26 202.449 103.315 203.413 105.422C206.646 97.8813 214.093 93.9671 219.819 101.355C220.189 101.831 220.715 102.438 221.207 102.78C223.215 101.94 224.256 100.386 226.941 100.492C227.51 100.515 228.518 100.594 229.043 100.794C230.924 101.513 232.423 104.782 233.386 105.711L233.541 105.633C234.594 100.883 236.089 94.9278 240.282 91.9249C242.429 90.3866 244.251 91.2173 246.128 92.489ZM220.182 125.57C221.888 124.195 222.368 121.237 222.656 119.173C223.035 116.456 222.272 110.663 220.783 108.323C219.091 112.414 216.216 122.247 220.182 125.57ZM74.5177 138.863C74.5456 137.411 74.6439 135.594 74.4898 134.162C73.9465 129.111 72.9122 123.968 71.332 119.132C71.1483 118.569 70.9417 117.177 70.5348 116.84C70.3714 120.141 70.9987 124.347 71.0902 127.731C71.1463 129.804 72.985 137.226 74.2351 138.745L74.5177 138.863ZM24.6489 117.601C24.622 118.045 24.5521 118.312 24.7795 118.686L25.0104 118.841C24.9468 118.373 24.9758 117.89 24.6489 117.601ZM249.197 114.432C249.846 110.862 249.991 107.304 249.228 103.735C249.116 103.208 248.962 102.226 248.564 101.861C248.238 105.13 248.665 107.579 248.878 110.815C248.929 111.602 248.801 114.031 249.027 114.62L249.197 114.432ZM24.7739 119.122C24.9457 121.379 27.0421 131.162 28.4359 132.763C28.6677 131.115 25.8239 119.941 24.7739 119.122ZM203.237 114.947C202.636 117.055 201.756 123.818 201.853 126.01C201.92 127.552 202.199 129.076 202.681 130.543C204.173 129.064 204.243 116.029 203.237 114.947ZM127.405 137.971C127.869 137.362 128.25 131.218 128.163 130.183C128.052 128.864 127.567 121.903 126.926 121.387C126.043 125.384 125.278 134.373 127.405 137.971ZM38.2824 116.454C37.7007 120.061 38.9304 132.221 40.8964 135.08L41.1392 135.177C41.2014 133.887 41.3084 132.467 41.2596 131.185C41.1148 127.375 40.1457 123.645 39.3688 119.928C39.2883 119.543 38.4339 116.66 38.2824 116.454Z" fill="#5D8CA6"/>
<path d="M163.851 45.1935C165.146 45.0525 166.583 45.0139 167.788 45.6295C172.193 47.879 175.148 53.8189 176.882 58.261C177.545 59.9569 178.097 62.0245 178.749 63.807C179.349 59.4074 182.398 53.1819 187.677 53.5029C190.421 53.6698 192.136 56.0384 193.779 57.9055L193.955 57.8282L193.991 57.6807C194.928 54.0984 198.215 48.7959 202.698 51.6624C205.32 53.3392 207.344 58.7834 207.942 61.7736C208.591 60.8433 208.927 59.6791 209.435 58.6659C211.801 53.9548 214.479 49.7742 220.199 49.5562C221.881 49.4808 223.525 50.0721 224.772 51.2007C225.276 49.8194 226.908 46.6547 228.788 47.0009C229.278 47.0914 229.568 47.8065 229.782 48.2273C228.299 49.2269 227.094 51.3338 226.861 53.0922C226.775 53.7342 228.09 56.1677 228.395 56.9341C230.263 61.6246 232.118 73.0161 229.021 77.1668C228.702 77.269 228.383 77.366 228.057 77.4372C227.335 77.5944 226.709 77.6447 226.08 77.2003C222.346 74.5591 222.635 62.3362 223.088 58.1458C223.217 56.9612 224.168 54.5351 223.881 53.5158C223.705 52.8886 222.96 52.4023 222.426 52.1114C221.226 51.4558 219.755 50.9638 218.398 51.3806C214.32 52.6325 211.388 60.2301 210.168 63.8697C209.714 65.2201 209.193 66.5987 209.047 68.0236C208.912 69.328 209.135 70.7678 209.158 72.0848C209.205 74.8753 209.117 81.5005 207.838 83.8188C207.292 84.8111 206.822 85.0043 205.788 85.3203L204.423 84.7683C204.409 84.7193 204.393 84.6703 204.378 84.6212L204.309 84.3745C203.257 80.6779 204.82 74.5888 205.458 70.7949C205.927 68.0054 206.887 67.6423 206.045 64.367C204.737 59.2733 204.341 55.3287 199.654 52.3626C198.09 54.3641 197.241 55.7384 196.554 58.242C196.23 59.4268 195.949 60.7848 195.5 61.914L195.426 62.0951C195.62 62.4851 195.786 62.8872 195.928 63.2986C197.254 67.1655 198.089 76.3886 196.324 80.0103C195.502 80.288 194.501 80.5798 193.614 80.2286C192.891 79.9428 192.706 78.4973 192.546 77.7352C192.092 75.5568 191.718 73.3612 191.726 71.1214C191.738 68.3123 193.447 62.736 192.335 60.2597C191.381 58.1361 189.309 55.8311 187.06 54.9907C186.544 55.1089 186.04 55.2086 185.594 55.5109C181.406 58.3508 180.021 67.462 180.306 72.0887C180.53 75.7029 181.932 81.313 181.205 84.7208C181.083 85.292 180.825 85.8958 180.293 86.1973C179.919 86.4095 179.31 86.4932 178.911 86.3053C176.425 85.134 177.813 71.6583 177.368 68.7072C176.741 64.556 175.376 60.1259 173.645 56.2914C171.847 52.305 169.232 47.9353 164.923 46.3087C160.449 47.9282 157.643 54.7569 156.539 59.0358C156.677 59.5966 156.932 60.3018 157.146 60.8235C160.068 67.9829 161.352 75.919 159.277 83.4735C158.867 84.9676 158.167 85.2712 156.828 85.8756C155.908 85.679 154.829 85.4272 154.406 84.5048C150.999 77.0683 152.371 66.3407 154.006 58.7151C153.304 56.5864 150.813 52.8949 149.085 51.3713C148.877 51.1886 147.945 50.816 147.642 50.692C147.057 50.8912 146.302 51.1277 145.793 51.5246C143.146 53.5853 140.887 58.7246 141.038 62.0227C141.083 62.9825 141.954 64.719 142.284 65.6493C143.681 69.5831 144.309 72.0644 143.675 76.2136C142.278 76.7308 141.845 76.6863 140.407 76.5677C137.429 73.4959 137.106 65.7441 138.35 61.9657C138.114 61.3567 137.849 60.7591 137.558 60.1747C136.507 58.0306 131.662 49.0412 128.718 51.5662C122.78 56.6608 122.586 69.6595 122.398 77.014C122.264 82.2815 123.799 87.4543 122.828 92.7442C122.61 94.1335 121.099 93.3098 120.411 92.9857C120.036 91.0099 120.023 88.3811 119.925 86.3637C119.729 82.3056 119.846 77.7785 119.508 73.7679C119.236 70.5436 117.96 66.0955 117.112 62.9454C115.934 59.079 114.117 53.3393 109.667 52.3427C107.688 53.2956 106.633 55.0606 105.032 56.522C104.43 57.0713 103.219 58.1889 103.343 59.0427C103.575 59.0245 104.235 58.5136 104.547 58.3249L104.734 58.3712C104.792 59.3443 103.586 61.8913 103.831 62.6024C105.446 67.2868 109.983 81.7492 106.276 85.577C104.5 86.1472 103.043 85.7075 102.228 83.9563C99.2663 77.5973 99.265 68.27 101.264 61.6639C101.135 61.3691 100.996 61.0793 100.845 60.795C99.596 58.448 96.1919 52.2852 92.7189 54.3203C90.7774 55.4579 89.3932 58.0911 88.8052 60.1862C88.1347 62.5752 87.4062 65.2055 87.4748 67.7161C87.5218 69.6548 88.1419 71.5862 88.5571 73.4782C89.0899 75.891 89.4902 78.331 89.7563 80.7872C89.9971 83.2281 90.1959 83.6926 87.9874 84.8841C87.4541 84.6767 87.0478 84.4794 86.5361 84.2303C84.7279 80.5107 84.5537 75.8072 84.5414 71.7126C84.5324 68.7726 84.9587 68.923 84.2726 65.8572C84.487 65.4112 84.8613 64.8678 84.6813 64.4269C84.5223 64.3718 83.7115 64.0968 83.666 63.9863C81.4785 58.6758 79.3925 51.909 74.184 48.6288C70.1096 53.1469 70.3442 62.6423 69.9625 68.4628C69.92 69.1107 71.6201 75.3167 71.9377 76.1531C71.2914 77.0089 70.7972 77.4083 69.9784 78.1241C71.012 78.5652 71.2258 78.6541 72.3503 78.6249C72.5591 80.0675 72.8936 81.7803 72.493 83.2122C72.3917 83.5746 72.2547 83.7625 71.91 83.9204C71.4495 84.1314 70.9352 84.1805 70.4633 83.9801C67.1666 82.5801 67.8475 69.6937 66.5688 66.3514C65.1546 62.655 61.1959 55.6081 57.5125 53.9459C55.0383 53.7216 53.3536 61.7349 53.5505 63.4748C53.7089 64.6167 54.4153 65.7041 54.6732 66.822C55.662 71.1078 57.6271 76.9227 56.7272 81.2794C56.2081 81.6854 55.8762 81.8553 55.3075 82.1655C54.7977 81.9776 53.5767 81.5521 53.3102 81.0598C51.0464 76.8774 50.8966 70.7964 50.6528 66.1749C50.5628 65.4777 50.9899 63.6324 50.716 63.0387C50.0731 61.6458 47.7232 57.6228 46.2012 57.2711C42.9257 57.821 42.5474 69.7012 42.4971 72.3347C42.4515 74.7274 42.6549 77.3486 42.8782 79.7336C42.526 80.2995 42.8289 79.8398 42.5255 80.1389C42.2403 80.4201 40.5987 80.4399 40.4125 80.324C39.8498 79.9737 39.6939 76.5214 39.6468 75.9348C39.4675 73.706 39.0385 71.9291 38.5932 69.7843C37.5762 64.8872 36.5802 59.986 34.7949 55.3015C33.9221 53.0117 33.205 52.1021 32.2026 50.1394C32.6565 49.3183 32.9443 49.0229 33.5973 48.4134C36.6758 51.5168 39.3199 60.8235 40.0564 65.1343C40.681 62.0395 41.0587 57.7857 43.8726 55.8411C46.7425 53.8578 49.8312 56.7161 51.2175 59.0725C51.6125 57.8038 52.161 55.8697 52.9129 54.7998C58.3793 47.0213 65.3471 58.0114 67.5623 62.7947C67.5808 59.1384 68.353 54.2711 69.757 50.8681C70.3351 49.4666 71.2682 48.0262 72.722 47.4629C73.7287 47.0729 75.7434 47.203 76.5782 47.7455C81.0442 50.6473 84.2332 58.3784 85.687 63.055C86.2282 55.3383 93.5011 47.632 99.9954 55.892C100.846 56.9738 101.298 57.7419 101.958 58.9699C106.05 47.9056 113.968 48.4423 117.911 59.0404C118.816 61.4749 119.76 64.0899 120.225 66.6505C120.767 64.5234 120.835 62.3805 121.457 60.2105C122.829 55.4242 125.358 48.1293 131.872 49.9545C134.765 50.765 137.769 55.8361 139.141 58.3598C141.366 51.0787 147.678 44.3854 153.438 53.4971C153.711 53.929 154.453 55.3791 154.938 55.4026C155.38 54.8885 155.97 53.3891 156.318 52.6801C156.732 51.827 157.207 51.0042 157.738 50.2179C159.201 48.007 161.082 45.7517 163.851 45.1935ZM157.103 82.8129C158.392 76.3509 158.265 69.627 155.86 63.2591C155.845 63.2193 155.728 63.1314 155.705 63.1131C155.318 64.5577 155.261 66.3027 155.14 67.7963C154.831 71.583 154.772 75.4561 155.43 79.2102C155.564 79.9789 156.255 82.6407 156.944 82.9447L157.103 82.8129ZM227.729 74.6213C228.356 69.5281 228.496 64.4264 226.744 59.5255C226.514 58.8826 226.48 57.7789 225.939 57.3764C225.241 62.0124 224.961 69.7118 227.193 74.1861C227.28 74.3594 227.563 74.5297 227.729 74.6213ZM104.993 83.0057C105.825 80.9269 104.898 74.3696 104.454 71.8763C104.222 70.5764 103.576 68.5485 103.245 67.1655L103.009 66.9279C102.916 68.4923 102.676 70.8485 102.654 72.314C102.619 74.7312 103.63 81.112 104.993 83.0057ZM141.72 73.887C141.785 72.8828 141.024 67.534 140.281 66.9491C139.999 68.1157 140.861 73.227 141.72 73.887Z" fill="#5D8CA6"/>
<path d="M140.281 66.9493C141.024 67.5342 141.785 72.883 141.72 73.8872C140.861 73.2272 139.999 68.1159 140.281 66.9493Z" fill="#BCC2CA" fill-opacity="0.0235294"/>
<path d="M194.686 68.0886C195.18 69.1209 195.325 74.4396 195.017 75.7843L194.84 75.5985C194.546 74.3497 194.532 69.4479 194.686 68.0886Z" fill="#BCC2CA"/>
<path d="M137.534 11.1708C139.496 7.56865 142.603 1.86971 147.1 1.31976C153.204 0.573284 153.977 13.0911 154.34 17.0546C154.979 15.2527 155.544 13.8914 156.495 12.1675C157.949 9.53241 159.841 6.43061 162.529 4.88708C162.84 4.70896 163.982 4.38636 164.381 4.26931C164.72 4.39271 165.056 4.5203 165.392 4.65183C167.345 5.43032 167.909 7.78536 168.715 9.63461C169.775 7.9273 170.399 6.49536 171.76 5.00312C172.452 5.17375 173.099 5.37688 173.778 5.58483C168.739 11.9043 169.045 13.9802 169.039 21.6478C169.035 26.1816 167.385 33.4574 164.901 37.3027C164.429 38.0327 163.021 38.518 162.162 38.6006C161.333 38.2635 161.44 36.7271 161.431 35.909C161.356 28.6313 164.324 21.377 166.454 14.5289C167.147 12.304 165.334 7.82015 164.049 5.92596C159.569 8.28798 155.731 17.5659 154.638 22.3479C154.215 24.1971 154.136 26.8254 153.922 28.772C153.614 31.3484 153.102 33.8967 152.393 36.3933C151.693 36.8901 151.032 37.4098 150.183 37.0516C148.958 35.6915 151.012 28.1678 151.342 26.1701C151.863 23.0082 152.236 21.0067 151.761 17.7821C151.564 15.4992 151.58 13.0845 151.088 10.8361C150.377 7.57741 149.828 4.90181 146.962 2.90288C145.896 3.50897 144.794 4.18882 143.902 5.12195C141.692 7.43255 139.062 11.7376 138.542 14.927C138.481 15.3019 138.746 17.4936 138.774 18.1554C138.935 22.0047 139.015 25.6594 137.793 29.3688C137.515 30.2103 136.856 31.1812 135.999 31.5349C133.298 32.6501 133.661 29.8807 133.621 28.356C133.535 24.8727 133.892 21.6886 134.897 18.3587C135.193 17.3768 135.346 16.5342 135.84 15.6247C135.449 14.79 135.274 13.7604 134.994 12.8823C134.024 9.83228 133.21 8.27186 130.502 6.58588C129.247 7.34343 127.834 8.42167 126.975 9.62724C125.269 12.0204 124.214 15.1985 123.479 18.0136C123.12 19.3885 122.678 21.0962 122.651 22.4908C122.621 23.9986 124.247 36.0222 120.539 34.3446C119.245 32.7579 120.284 25.2948 120.309 23.0775C120.323 21.7962 120.09 20.4591 119.939 19.1879C119.573 16.1068 118.37 8.08701 115.804 6.22964C115.523 6.02613 115.212 5.93333 114.866 6.01597C111.874 6.73061 107.227 19.3244 106.759 22.209C106.558 23.4444 106.59 24.7176 106.566 25.9664C106.482 30.1973 106.588 34.8382 104.541 38.6812C104.513 38.7327 104.484 38.7838 104.456 38.835C104.204 38.9125 103.955 38.9849 103.696 39.0388C103.144 39.1538 102.558 39.2329 102.083 38.854C99.8276 37.0566 103.559 26.4926 103.957 23.7667C104.078 22.9409 103.986 22.1775 103.86 21.3617C103.381 18.2353 102.174 14.2063 99.4791 12.2579C98.7357 11.7205 97.6517 11.0731 96.6972 11.2657C92.5496 12.1025 88.8249 25.268 88.2364 28.9101C87.7334 32.0227 88.034 41.4905 86.4577 43.5532C86.1005 44.0206 85.7196 44.2502 85.1404 44.3267C84.8393 44.2321 84.7351 44.2155 84.5469 43.9434C83.525 42.467 85.2759 33.483 85.5321 31.5272C85.7792 29.6416 85.3817 27.6569 85.1656 25.7829C84.6399 21.2251 84.0875 15.9964 81.6552 11.9841C81.3229 11.4357 80.8574 10.9345 80.4677 10.4224C76.8813 14.5095 74.5498 25.009 74.7326 30.4722C74.797 32.3975 74.7639 34.562 74.3603 36.4586L74.3212 36.6373C73.6755 36.9759 72.9772 37.4296 72.3455 36.9901C71.7694 35.7141 72.2544 27.0723 71.9266 24.852C71.6312 22.8514 71.2604 20.5335 70.8323 18.5157C70.6181 17.5061 70.1786 16.4224 70.0083 15.4239C70.1941 15.0647 71.2018 14.4468 71.6109 14.0802C72.8659 14.2563 73.3166 19.574 74.0408 20.2614C74.3864 19.8096 74.8243 17.5213 75.0562 16.8907C76.0636 14.1515 76.4974 11.0916 79.6539 10.0028C80.1027 9.86287 80.9887 9.21146 81.4189 9.15763C82.9725 8.96352 84.211 11.565 84.6908 12.6215C86.1098 15.7469 86.6012 19.1441 87.2596 22.4577C87.2821 22.874 87.2423 23.2323 87.4796 23.5535C87.7437 23.3218 87.7533 23.0539 87.834 22.6998C90.0075 17.976 92.2641 7.502 99.7505 10.2661C103.637 11.7008 104.244 15.1543 105.693 18.3649L105.762 18.5125C106.756 16.1226 107.471 13.7763 108.686 11.4667C110.525 7.97351 111.602 5.34196 115.589 4.16876C116.095 4.36351 116.936 4.67189 117.333 4.98979C120.352 7.41059 121.325 13.2692 121.856 16.8244C123.139 12.0277 126.363 3.27131 132.938 5.45178C134.859 6.08859 136.763 9.38285 137.534 11.1708ZM164.051 33.2594C165.28 30.5994 165.889 27.0708 166.333 24.1646C166.554 22.7306 167.187 20.4976 165.188 20.0531C165.022 20.4473 164.939 20.5433 165.037 20.9601C165.293 21.3142 165.647 21.4125 166.057 21.5978C166.209 21.8295 166.299 21.9345 166.196 22.2756C165.574 24.3455 163.391 31.4725 164.051 33.2594Z" fill="#5D8CA6"/>
<path d="M72.5897 20.3186C74.1397 20.6991 73.7492 21.9204 73.2423 22.9976C72.0477 22.528 71.8253 21.2848 72.5897 20.3186Z" fill="#BCC2CA"/>
<path d="M136.513 21.2363C136.77 22.0712 136.355 25.549 136.257 26.56C135.741 25.602 136.116 22.2759 136.513 21.2363Z" fill="#8FA4B7"/>
<path d="M104.303 30.6457C104.348 30.6903 104.435 30.8573 104.472 30.9209C104.479 32.0333 104.328 32.8889 104.033 33.957C103.452 33.571 104.065 31.2166 104.303 30.6457Z" fill="#8FA4B7"/>
<path d="M179.937 8.43204C181.36 8.63631 182.459 8.95992 183.076 10.3437L183.336 10.9182C183.736 10.7141 183.776 10.4769 184.061 10.026C184.522 10.2346 185.029 10.3901 185.304 10.7922C185.551 11.9949 184.091 13.7449 183.951 15.2322C183.783 17.0336 184.248 19.0342 184.238 20.7007C184.2 26.5004 183.078 34.6366 180.315 39.7627C180.295 39.7942 180.276 39.8274 180.253 39.8571C179.776 40.4669 178.837 40.9685 178.072 41.075C177.762 41.1184 177.408 41.1051 177.162 40.8848C175.012 38.9579 178.517 25.0214 179.329 22.1376C179.861 20.2506 181.049 17.7589 181.236 15.8754C181.477 13.4646 180.072 10.9586 179.941 8.53932C179.94 8.50351 179.938 8.46784 179.937 8.43204ZM179.158 35.8476C179.927 34.0755 181.925 24.5967 181.464 23.1376C180.561 25.4209 178.718 33.8157 179.158 35.8476Z" fill="#5D8CA6"/>
<path d="M181.463 23.1387C181.924 24.5978 179.926 34.0766 179.157 35.8487C178.717 33.8167 180.56 25.422 181.463 23.1387Z" fill="#5E5E5C" fill-opacity="0.0117647"/>
<path d="M196.27 17.0449C196.377 17.0831 196.486 17.1209 196.591 17.1627C197.381 17.4739 198.259 17.813 198.591 18.6621C199.33 20.5482 198.136 30.3819 197.622 32.7372C197.148 34.8987 196.465 37.2455 195.542 39.2509C195.025 40.3746 194.579 41.1521 193.377 41.5954C192.833 41.7452 192.39 41.9343 191.852 41.8245C191.659 41.6733 191.563 41.6312 191.455 41.4026C191.233 40.9294 191.205 40.2692 191.138 39.7536C190.301 33.2746 194.183 23.2266 196.27 17.0449ZM193.894 36.1838C194.36 34.7703 196.585 25.2912 195.96 24.5302C195.36 25.6877 193.592 34.3113 193.703 35.9359L193.894 36.1838Z" fill="#5D8CA6"/>
<path d="M26.8527 58.534C27.0909 58.6305 26.9835 58.5519 27.1525 58.7972C26.9376 60.6218 26.7586 62.7147 26.8717 64.5361C27.0635 67.1828 27.674 69.7638 28.115 72.3726C28.4168 74.1579 29.2993 79.4879 25.821 78.1829C23.4238 76.7643 23.201 66.9964 23.8281 64.3181C24.0541 63.352 26.1998 59.4461 26.8527 58.534Z" fill="#5D8CA6"/>
<path d="M206.323 24.1077C207.096 24.562 209.987 26.476 210.044 27.1222C210.229 29.1681 208.174 38.0871 207.241 39.4085C206.795 40.003 205.612 41.1076 204.882 40.1399C204.542 39.6901 204.554 38.4735 204.532 37.8889C204.365 33.3219 205.323 28.5453 206.323 24.1077Z" fill="#5D8CA6"/>
<path d="M207.715 26.7814L207.901 26.8605C208.11 27.361 207.426 30.7756 207.198 31.3921L207.001 31.2419C206.821 30.3748 207.487 27.7267 207.715 26.7814Z" fill="#8FA4B7"/>
<path d="M235.661 57.3968C236.418 57.7108 236.571 58.631 236.989 59.3286C237.639 60.4169 238.256 61.477 238.903 62.5773C239.424 63.4608 239.983 64.4963 240.226 65.5085C240.691 68.4011 241.012 77.2142 240.328 79.7512C239.69 80.1481 238.677 80.5842 237.987 80.1506C237.227 78.7098 237.326 66.1866 237.051 63.5405C236.851 61.6165 235.645 58.8988 235.661 57.3968Z" fill="#5D8CA6"/>
<path d="M59.9096 21.9105L60.1113 21.9591C60.378 22.9286 58.8598 27.7614 58.9324 29.0635C58.9669 29.6828 58.6756 32.1115 58.3152 32.7071C58.1384 32.9993 56.8075 32.9192 56.4331 32.91C56.0929 32.1231 55.9537 26.3515 55.8961 25.0825C56.8396 24.1664 58.7783 22.5291 59.9096 21.9105Z" fill="#5D8CA6"/>
<path d="M87.2594 22.4582L87.8338 22.7003C87.753 23.0544 87.7435 23.3223 87.4793 23.554C87.2421 23.2328 87.2818 22.8745 87.2594 22.4582Z" fill="#BCC2CA" fill-opacity="0.0196078"/>
</g>
</svg>
