<svg width="399" height="113" viewBox="0 0 399 113" fill="none" xmlns="http://www.w3.org/2000/svg">
<path d="M0.0818831 -81.9266C-0.103123 -89.8506 0.045556 -97.3609 0.32643 -105.274C0.568398 -112.093 0.634319 -118.199 1.6691 -124.954C2.50393 -130.404 3.74719 -134.273 5.31091 -139.488C12.303 -162.484 23.3128 -184.07 37.8332 -203.251C64.8215 -239.333 102.394 -266.162 145.35 -280.023C148.673 -281.086 152.25 -281.841 155.606 -282.797C162.892 -284.88 170.075 -286.858 177.591 -287.966C182.017 -288.621 183.127 -287.239 183.033 -282.977C182.909 -277.383 182.904 -271.817 182.917 -266.223L183.047 -222.918L183.361 -95.4786L183.085 29.4565L182.948 79.19C182.933 88.1576 182.945 97.1517 182.903 106.121C182.881 106.81 182.751 110.105 182.343 110.542C180.913 112.074 174.45 110.999 172.922 110.816C164.896 109.855 157.374 108.392 149.666 106.095C143.749 104.331 137.717 103.068 131.875 101.015C106.153 92.0041 82.5747 77.7959 62.6171 59.2802C56.9576 54.0155 51.8089 47.502 46.8978 41.5126C43.972 37.9444 41.5078 34.2043 38.8745 30.4378C27.8593 14.9785 18.8484 -1.80633 12.0555 -19.518C11.2315 -21.6561 9.81777 -24.6224 9.23129 -26.7597C7.04201 -34.7378 4.35929 -43.6079 2.80702 -51.7026C0.927858 -61.5015 0.441272 -72.0015 0.0818831 -81.9266Z" fill="#77B066"/>
<path d="M253.361 -72.5203C252.864 -99.7527 254.051 -127.331 253.992 -154.577C253.985 -158.408 253.793 -162.335 253.708 -166.176L253.296 -197.148C253.263 -200.947 253.326 -204.72 253.394 -208.519C253.819 -232.66 253.661 -256.829 255.151 -280.931C255.188 -281.56 255.641 -282.495 255.927 -283.053C256.192 -281.048 256.098 -277.815 256.093 -275.704L256.086 -263.763L256.29 -224.92C256.759 -184.153 256.916 -143.384 256.762 -102.614C256.745 -94.4849 256.677 -86.3566 256.555 -78.2286C256.424 -72.6624 255.924 -66.6255 256.077 -61.106C256.375 -50.244 256.771 -39.3882 256.942 -28.5173L257.491 36.9232C257.648 50.2971 258.525 63.7697 258.07 77.1132C257.941 80.8925 257.768 84.6719 257.697 88.4526L257.559 98.4053C257.545 100.329 258.075 103.818 256.457 104.947C255.462 105.048 255.629 105.188 254.914 104.79C254.803 103.965 255.125 101.832 255.165 100.788C255.261 98.201 255.329 95.6431 255.364 93.0546C255.554 82.146 255.545 71.2351 255.338 60.3267C255.214 54.0199 255.01 47.7147 254.728 41.4127C254.564 37.9315 254.255 34.3279 254.21 30.8621L253.57 -44.2847C253.577 -53.697 253.507 -63.1092 253.361 -72.5203Z" fill="#77B066"/>
<path d="M206.912 81.0863C206.949 79.0429 207.426 76.763 207.58 74.7021C207.834 71.3024 208.031 67.8667 208.198 64.4618L210.366 16.9633C211.565 -10.5606 212.222 -38.1056 212.336 -65.6552C212.574 -101.732 210.333 -137.741 210.145 -173.804C210.077 -186.722 210.477 -199.755 211.005 -212.661C211.268 -219.108 211.281 -225.556 211.492 -231.998C211.926 -245.234 212.43 -258.438 212.303 -271.685C212.282 -273.929 211.637 -287.829 212.098 -288.613C213.058 -288.687 212.642 -288.802 213.41 -288.346C214.509 -286.749 214.49 -282.958 214.651 -280.798C214.991 -279.005 215.009 -268.116 215.075 -265.612C215.302 -254.356 215.185 -243.095 214.723 -231.846C214.465 -226.065 213.942 -220.315 213.7 -214.47C213.29 -201.66 213.032 -188.847 212.925 -176.032C212.81 -161.716 213.398 -146.944 213.679 -132.616C213.804 -126.265 214.537 -119.726 214.738 -113.429C215.085 -106.099 214.844 -98.6266 215.23 -91.3104C215.793 -80.6503 215.386 -70.1962 215.161 -59.5279C214.912 -47.6957 215.139 -35.7389 214.764 -23.9195C213.94 -3.36029 212.924 17.191 211.718 37.7316C211.15 47.8675 210.743 58.0117 210.498 68.1605C210.396 71.1969 210.53 87.4097 208.587 89.0908C207.357 88.0514 207.07 82.7648 206.912 81.0863Z" fill="#77B066"/>
<path d="M264.156 -120.075C263.825 -164.308 264.829 -208.542 267.165 -252.715C267.317 -255.819 267.509 -276.384 269.479 -277.127C271.233 -275.002 269.96 -264.406 269.932 -261.098C269.791 -244.851 268.581 -228.634 268.107 -212.385L265.987 -108.468C265.959 -107.223 266.735 -102.726 266.813 -100.525C267.331 -85.6108 268.281 -70.7148 269.66 -55.8553C269.653 -46.0062 270.701 -35.088 270.488 -25.4184L268.869 29.2935C268.574 37.7363 267.795 46.2273 267.845 54.6729C267.875 59.8216 269.857 99.4026 269.134 100.793C268.365 101.471 267.174 101.717 266.151 102.034C266.365 94.8147 265.828 85.2928 265.699 77.7879C265.661 61.9564 265.31 45.8177 265.828 29.996C266.273 16.4699 266.407 2.61842 266.97 -10.8513C268.077 -37.3586 265.647 -63.3228 264.658 -89.713C264.353 -99.8309 264.186 -109.953 264.156 -120.075Z" fill="#77B066"/>
<path d="M286.193 -194.703C285.637 -211.445 286.967 -228.728 287.204 -245.503C287.243 -248.362 287.253 -268.253 288.313 -269.193C290.414 -269.069 290.51 -266.797 290.578 -265.046C290.81 -259.08 290.278 -253.105 290.142 -247.13L289.497 -213.949C289.27 -204.972 288.573 -196.253 289.305 -187.283C289.471 -185.233 289.46 -182.928 289.525 -180.857L291.462 -130.311C291.697 -123.988 292.103 -117.405 292.21 -111.102C292.581 -80.3991 292.583 -49.6934 292.217 -18.9909C292.06 -6.76386 291.537 5.44846 291.507 17.7229C291.526 34.3049 291.369 50.8865 291.033 67.465C290.928 74.205 290.871 80.9761 290.742 87.7074C290.724 88.7522 290.609 91.8419 289.696 92.3164C289.035 92.6615 288.838 92.8144 288.074 92.7454C287.023 91.3393 287.886 76.0312 287.973 72.9683L288.371 50.8332L289.6 -22.4266C290.203 -58.3608 290.691 -93.9918 288.932 -129.925C288.641 -135.854 287.945 -141.74 287.659 -147.668C286.901 -163.338 286.413 -179.017 286.193 -194.703Z" fill="#77B066"/>
<path d="M228.524 106.678C228.231 102.214 228.935 96.1115 229.16 91.4941C230.532 63.4023 228.829 35.3082 228.904 7.26255C229.021 -36.9359 232.157 -81.2123 230.797 -125.423C230.562 -133.025 230.215 -140.774 230.255 -148.367C230.705 -181.331 231.817 -214.281 233.587 -247.2C233.883 -253.035 234.281 -283.967 235.66 -286.26L235.958 -286.097L235.555 -286.029L236.061 -285.9C236.528 -284.792 236.423 -283.757 236.43 -282.534C236.931 -272.903 236.495 -264.45 236.216 -254.91C235.949 -243.82 235.564 -232.732 235.065 -221.649C234.99 -220.172 234.912 -218.659 234.793 -217.186C233.111 -196.075 233.409 -174.851 233.364 -153.683L233.168 -92.8746C233.132 -83.7118 233.266 -74.2002 233.092 -65.0699L231.695 -11.3228C231.568 -5.88155 231.27 -0.285607 231.249 5.14227C231.233 9.85365 231.51 14.8028 231.603 19.5363L232.007 45.9693C232.136 51.7822 232.64 58.302 232.506 64.0594C232.164 78.8119 231.556 93.6646 230.827 108.405C230.785 109.267 230.747 109.855 230.098 110.4C229.359 110.516 229.366 110.649 228.853 110.363C228.494 109.337 228.552 107.811 228.524 106.678Z" fill="#77B066"/>
<path d="M198.955 -194.202C198.738 -203.01 200.409 -285.79 202.717 -288.759C203.552 -289.161 203.143 -289.128 203.969 -288.979C204.419 -288.39 204.503 -288.303 204.437 -287.375C204 -281.194 203.607 -274.985 203.408 -268.793C202.837 -251.742 202.462 -234.684 202.283 -217.623C202.117 -209.448 201.467 -201.234 201.787 -193.059C201.878 -190.712 201.983 -188.365 202.062 -186.018C202.255 -178.109 202.551 -170.201 202.951 -162.3L204.891 -112.03C205.154 -104.288 205.05 -96.0785 205.112 -88.2784C205.362 -67.7198 205.331 -47.1589 205.019 -26.6011C204.913 -6.24917 204.266 14.9195 203.88 35.328L203.597 57.9839C203.572 59.855 203.914 67.1308 202.925 68.0759C202.082 68.4252 202.266 68.5068 201.561 68.3219C201.334 58.8418 201.216 49.3597 201.208 39.8771C201.255 25.4599 201.803 11.4251 202.121 -2.9334L202.932 -59.3182C203.042 -70.2146 202.981 -81.112 202.747 -92.0065C202.65 -96.2754 202.079 -100.685 202.172 -104.928C202.195 -105.975 202.757 -107.098 203.117 -108.075C203.51 -109.14 203.336 -109.299 202.851 -110.307C201.959 -112.159 201.342 -137.555 201.153 -141.894C200.931 -146.988 200.309 -152.054 200.051 -157.147C199.471 -169.493 199.106 -181.845 198.955 -194.202Z" fill="#77B066"/>
<path d="M319.02 -148.127C318.994 -148.534 318.978 -148.943 318.966 -149.352C318.917 -151.828 319.17 -155.086 319.252 -157.637L319.965 -178.363C320.607 -196.919 320.971 -215.483 321.053 -234.049C321.069 -236.047 320.814 -248.238 321.836 -249.283L322.272 -249.136C323.318 -247.89 323.668 -246.406 323.729 -244.804C324.932 -213.014 322.104 -181.226 321.747 -149.48C321.59 -135.466 323.121 -120.603 323.973 -106.53C324.735 -92.79 325.342 -79.042 325.79 -65.2883C325.921 -61.054 325.474 -55.614 325.375 -51.2315C325.258 -42.9942 325.199 -34.7562 325.202 -26.5182C325.185 -9.29784 324.782 7.55711 324.355 24.7557C324.245 35.2295 324.4 45.7308 323.522 56.1801C323.293 58.9208 323.107 73.7071 319.827 74.1515C319.637 73.2943 320.092 69.0628 320.113 67.8652C320.237 61.2232 320.76 54.5993 320.938 47.9647L322.181 -20.8596C322.355 -30.0937 323.185 -39.5896 323.051 -48.801C322.744 -69.9849 321.785 -91.2331 320.483 -112.377C319.749 -124.283 319.576 -136.223 319.02 -148.127Z" fill="#77B066"/>
<path d="M296.992 -95.69C296.793 -107.893 298.758 -262.753 299.121 -263.449C299.954 -263.604 299.579 -263.679 300.284 -263.237C301.197 -261.764 301.434 -259.256 301.368 -257.542C300.939 -246.321 300.892 -235.112 300.826 -223.889L299.712 -136.272C299.593 -127.106 299.175 -117.875 299.206 -108.703C299.239 -97.9422 299.625 -87.1762 299.792 -76.4109C300.071 -61.0567 300.587 -45.7077 301.335 -30.3695C301.642 -24.6636 302.336 -18.8024 302.564 -13.2583C303.427 6.80163 303.554 26.8863 302.939 46.9556C302.698 57.6038 302.608 68.1678 301.842 78.7986C301.708 80.6737 301.616 87.0659 299.199 87.3286C298.53 86.3512 298.924 82.1577 299.018 80.8308C299.436 74.955 299.48 68.9575 299.55 63.0583C299.722 48.5665 300.528 34.1 300.507 19.6077C300.392 4.04128 299.485 -11.5485 298.873 -27.1021C297.827 -49.9513 297.198 -72.8179 296.992 -95.69Z" fill="#77B066"/>
<path d="M306.83 -196.746C306.72 -211.841 306.987 -226.937 307.629 -242.02C307.712 -244.475 307.43 -257.706 309.341 -258.428C310.964 -257.047 310.77 -253.063 310.634 -251.053C310.036 -242.238 310.282 -233.399 309.946 -224.567C309.895 -219.055 309.48 -213.47 309.548 -207.96C310.078 -164.437 312.871 -120.998 313.201 -77.48C313.279 -67.1717 312.826 -56.6711 312.622 -46.3616C312.557 -43.0791 312.8 -39.887 312.789 -36.6418C312.737 -17.4784 312.521 1.68437 312.139 20.8443C311.954 34.6649 311.937 48.4874 312.092 62.3088C312.12 65.5079 312.057 76.0375 312.634 78.6354C312.034 79.5588 311.551 80.7606 310.35 80.6037C309.571 79.5506 309.909 75.6876 309.883 74.1435C309.801 70.2588 309.686 66.3749 309.543 62.4918C309.311 56.1239 308.919 49.783 308.654 43.4308C308.561 41.2067 308.929 37.1522 309.053 34.7776C309.344 29.5589 309.552 24.3358 309.679 19.1106L310.739 -47.1953C310.781 -49.9869 309.834 -53.1362 310.005 -56.0224C310.547 -65.0673 310.899 -74.0497 310.856 -83.115C310.821 -91.0517 310.085 -98.9332 310.134 -106.853C310.155 -109.961 310.706 -113.013 311.084 -116.087C310.688 -116.849 310.134 -118.104 310.054 -118.941C307.651 -144.625 307.308 -170.997 306.83 -196.746Z" fill="#77B066"/>
<path d="M240.015 28.0308C239.495 22.6632 240.435 18.9744 240.489 13.7183C240.632 11.4608 239.811 8.62006 239.929 6.41842C240.294 -3.13454 240.365 -12.5299 241.01 -22.077C242.065 -37.6984 242.447 -53.5236 242.912 -69.1807C243.188 -78.4903 243.038 -88.036 243.083 -97.3503L243.406 -175.723C243.699 -200.135 244.858 -225.866 245.977 -250.286L246.947 -271.051C247.102 -274.752 247.03 -279.308 247.677 -282.964C247.747 -283.366 247.836 -283.28 248.329 -283.527C250.533 -283.2 249.447 -277.449 249.382 -275.771C249.065 -267.821 248.941 -259.737 248.338 -251.812C246.46 -226.752 246.521 -201.08 245.822 -175.952C245.493 -164.093 245.231 -151.988 245.313 -140.129C245.372 -132.195 245.491 -124.261 245.676 -116.327C245.73 -114.487 245.744 -112.54 245.869 -110.714C246.493 -101.542 245.749 -92.4875 245.569 -83.3165L243.242 1.5918C242.89 12.4188 242.886 23.2542 243.228 34.0814C243.442 42.3692 244.166 51.3988 243.406 59.5302L240.531 60.8557C240.566 52.9113 240.187 44.8514 240.229 36.8955C240.245 34.0487 240.215 30.8536 240.015 28.0308Z" fill="#77B066"/>
<path d="M276.36 -89.3366C276.003 -97.4341 276.339 -105.796 276.552 -113.894C276.728 -121.155 276.836 -128.418 276.876 -135.681L277.361 -230.467L277.485 -256.081C277.549 -260.99 277.631 -265.906 277.605 -270.818C277.598 -272.022 277.213 -272.896 277.919 -273.806C278.754 -274.049 278.351 -274.065 279.171 -273.74C280.984 -271.646 279.922 -267.819 279.781 -265.191C279.554 -261.016 279.488 -256.834 279.58 -252.654C280.03 -241.606 280.299 -230.551 280.396 -219.494C280.435 -209.585 279.957 -199.273 279.798 -189.35L279.251 -134.879C278.831 -101.982 279.277 -69.0798 280.588 -36.2063C280.977 -25.251 281.868 -14.1264 282.279 -3.28025C282.813 13.4718 282.856 30.2356 282.412 46.9903C282.384 47.823 282.239 48.0313 281.714 48.5067C280.034 48.3665 279.952 46.3818 279.959 45.0187C280.145 0.170173 277.384 -44.5301 276.36 -89.3366Z" fill="#77B066"/>
<path d="M331.707 -234.795C331.646 -236.256 331.24 -240.036 332.044 -241.067C333.498 -241.071 333.876 -238.876 333.953 -237.742C334.765 -225.853 334.802 -213.963 334.927 -202.058L335.4 -141.82C335.813 -75.1977 335.801 -8.57412 335.358 58.0474C335.349 59.5087 335.525 61.5742 334.258 62.5343L333.902 62.2968C333.076 59.9213 333.902 41.2993 333.855 37.3418L333.027 -33.8861C332.91 -43.0398 332.455 -52.3405 332.495 -61.4807C332.57 -78.4644 333.437 -95.5131 333.4 -112.494C333.339 -140.579 331.172 -168.589 332.682 -196.674C332.811 -199.065 332.455 -202.235 332.406 -204.751C332.265 -214.768 332.033 -224.782 331.707 -234.795Z" fill="#77B066"/>
<path d="M354.675 37.1822C355.01 33.2308 355.048 28.9618 355.174 24.9772C355.458 17.7883 355.62 10.5953 355.662 3.40103L355.822 -14.0262C355.873 -16.7239 356.15 -19.5913 356.131 -22.2481C356.115 -24.7926 355.843 -27.4279 355.805 -30.0248L355.507 -65.8066C355.554 -81.5867 355.751 -97.3661 356.098 -113.144C356.195 -116.664 356.68 -120.278 356.786 -123.92L358.254 -181.418C358.46 -188.597 357.827 -195.954 357.782 -203.142C357.768 -205.23 356.694 -213.264 358.307 -214.207C359.065 -213.882 359.48 -212.86 359.912 -212.089C360.27 -210.602 360.256 -206.141 360.284 -204.327L360.491 -191.868C360.854 -168.227 359.764 -144.036 359.149 -120.379C358.922 -111.573 358.929 -102.714 358.87 -93.9028C358.847 -90.5244 358.223 -85.8425 358.354 -82.7046C358.584 -77.2664 358.842 -72.2919 358.889 -66.8238C359.33 -41.3612 359.217 -15.8921 358.549 9.56528L358.014 26.5476C357.911 29.6163 358.153 38.8897 355.855 40.7273L355.374 40.6296C354.593 39.5718 354.736 38.529 354.675 37.1822Z" fill="#77B066"/>
<path d="M341.671 55.3596C341.606 54.169 341.88 51.0688 341.901 49.6295C341.99 44.163 342.326 38.7342 342.668 33.2818C343.264 23.3006 343.622 13.3067 343.74 3.30869C344.089 -48.5031 343.416 -100.268 345.634 -152.031C346.584 -174.131 346.603 -196.325 346.261 -218.437C346.244 -219.482 345.787 -227.211 345.993 -227.466C346.697 -227.463 347.002 -227.12 347.576 -226.69C348.864 -224.649 348.512 -221.039 348.573 -218.601C348.718 -212.834 348.594 -207.02 348.95 -201.258C349.255 -196.332 349.975 -191.692 349.117 -186.75C348.85 -185.168 348.803 -182.601 348.763 -180.96L346.741 -110.338C346.354 -93.1499 346.678 48.9705 343.855 53.914C343.362 54.774 342.591 55.12 341.671 55.3596Z" fill="#77B066"/>
<path d="M374.376 -98.4221C374.317 -101.081 374.273 -103.81 374.294 -106.469C374.453 -125.666 374.444 -144.761 375.126 -163.951L375.623 -179.793C375.691 -181.582 375.368 -186.117 376.416 -187.423L376.864 -187.4C379.793 -184.34 378.541 -175.983 378.367 -172.037C378.088 -165.725 377.901 -159.409 377.807 -153.09L377.57 -77.1877C378.093 -52.2484 379.523 -27.2842 379.188 -2.35115C379.143 0.970703 379.648 9.40858 376.135 11.1576L375.867 10.9818L375.785 10.393C376.357 9.35762 376.838 6.60009 376.658 5.46327C375.966 1.11798 377.049 -3.36314 376.916 -7.65326C376.777 -12.0974 376.193 -16.5423 376.043 -21.0351L374.707 -65.5461C374.383 -76.3742 374.524 -87.5428 374.376 -98.4221Z" fill="#77B066"/>
<path d="M218.962 70.4643L221.197 -132.443C221.204 -133.187 221.226 -133.846 221.674 -134.449C222.406 -134.498 222.033 -134.568 222.77 -133.942C223.229 -132.878 223.175 -131.969 223.229 -130.804L223.616 -89.5915C223.647 -87.266 223.684 -85.0218 223.722 -82.6133C223.837 -75.2996 224.582 -67.7393 222.997 -60.5376C222.997 -60.5376 221.864 -59.5464 221.768 -59.4615C221.601 -58.2544 223.217 -57.647 223.239 -56.2042C223.332 -49.4223 223.764 -42.2008 223.677 -35.4647L221.9 72.4459C220.934 71.765 219.954 71.1043 218.962 70.4643Z" fill="#77B066"/>
<path d="M365.436 27.7839C365.322 25.3602 365.776 22.5632 365.807 20.0859C365.868 15.1183 365.859 10.1377 365.868 5.17008L366.154 -121.103C366.098 -141.067 366.321 -161.028 366.825 -180.985C366.89 -183.554 366.874 -200.528 367.58 -201.529L368.009 -201.475L368.483 -200.589C368.694 -200.166 369.613 -198.347 369.604 -197.992C369.517 -194.279 369.36 -190.523 369.304 -186.808L368.661 -140.05L368.225 -12.0638L368.201 8.38534C368.201 11.8755 368.968 26.8835 365.436 27.7839Z" fill="#77B066"/>
<path d="M190.502 102.56C190.368 100.259 190.527 97.4001 190.672 95.0687C191.612 79.9829 190.673 65.0589 190.524 49.9617C190.445 42.035 190.6 34.2386 190.69 26.3027L191.055 -9.31527L191.577 -49.1478C191.613 -54.8854 191.771 -61.3704 191.58 -67.0622L194.654 -66.3908C195.247 -63.3822 194.799 -61.0957 194.641 -58.0133L192.857 41.618C192.828 44.3484 193.202 47.1111 193.213 49.8282C193.242 57.0196 194.114 64.6346 194.05 71.7884C193.96 81.7963 193.156 91.8703 192.999 101.888C192.971 103.669 192.999 111.181 192.121 112.371L191.748 112.226C190.425 110.089 190.624 105.309 190.502 102.56Z" fill="#77B066"/>
<path d="M238.334 106.546C238.158 104.575 238.793 98.1068 238.941 95.8605C239.412 88.7219 239.762 81.5691 240.21 74.43C240.325 72.633 240.146 65.5795 240.705 64.7466C242.088 64.0748 242.85 65.619 243.423 66.6869C243.931 69.2436 242.972 79.6604 242.78 82.9995L241.518 108.431L238.746 109.488C238.585 108.585 238.463 107.472 238.334 106.546Z" fill="#77B066"/>
<path d="M218.649 100.577C218.395 93.8954 218.781 87.1944 218.969 80.514C219.031 78.293 219.098 76.6872 218.796 74.437C219.763 75.0156 220.814 75.5918 221.799 76.1529C222.003 79.586 222.033 83.1222 222.103 86.5684C222.357 94.5215 222.246 102.887 221.622 110.804C221.577 111.375 220.091 111.716 219.41 111.318C218.546 109.694 218.726 102.944 218.649 100.577Z" fill="#77B066"/>
<path d="M278.175 97.4035C278.154 97.0603 278.142 96.7169 278.137 96.3732C278.121 91.3467 278.733 84.0826 278.862 79.0381C278.954 75.5267 279.277 53.011 280.347 51.9266C280.982 52.2496 280.825 52.2749 281.224 53.0772C281.946 54.138 282.08 54.3977 282.549 55.5925C281.951 58.343 281.749 63.6994 281.561 66.7131C281.137 73.3863 280.783 80.0639 280.501 86.7445C280.403 88.9705 280.293 94.9711 279.727 96.6638C279.106 97.227 278.972 97.215 278.175 97.4035Z" fill="#77B066"/>
<path d="M200.356 95.7072C200.182 93.4448 201.078 71.5982 201.701 70.7414C202.098 70.6491 203.152 70.5817 203.261 71.0635C204.368 75.9521 203.767 83.2953 202.858 88.1775C200.807 90.1748 201.156 91.6801 201.337 94.371C202.942 96.4971 203.382 97.9406 203.404 100.642C203.424 102.996 203.704 111.199 202.385 112.642L202.011 112.594C200.69 110.834 200.488 98.6003 200.356 95.7072Z" fill="#77B066"/>
<path d="M207.147 106.866C206.64 102.652 207.379 98.8184 207.754 94.6412C207.89 93.1385 206.143 91.6803 207.717 90.1944C210.031 89.8996 209.781 93.081 209.839 94.633C209.97 99.569 210.701 104.631 210.359 109.579C210.258 111.052 209.973 112.439 208.303 112.477C207.378 111.655 207.271 108.217 207.147 106.866Z" fill="#77B066"/>
</svg>
