<svg width="226" height="52" viewBox="0 0 226 52" fill="none" xmlns="http://www.w3.org/2000/svg">
  <path id="Vector" d="M27.5886 13.8196C24.9334 13.8196 22.742 14.4669 21.0144 15.7568C19.2869 17.0513 18.0279 18.738 17.2281 20.8264C16.4282 22.9147 16.0306 25.2487 16.0306 27.8378V50.7053H1.89319V26.1464C1.89319 21.3744 2.83979 17.0183 4.73298 13.0731C6.62617 9.12802 9.46596 5.98137 13.2476 3.62847C17.034 1.27557 21.8143 0.0991211 27.5886 0.0991211C33.3628 0.0991211 38.1621 1.27557 41.9816 3.62847C45.8011 5.98137 48.6693 9.11384 50.5956 13.0259C52.5219 16.9379 53.4827 21.313 53.4827 26.1511V50.7101H39.3406V27.8425C39.3406 25.3243 38.9099 23.0044 38.0437 20.8831C37.1776 18.7617 35.9044 17.0561 34.21 15.7615C32.5156 14.4669 30.31 13.8244 27.5838 13.8244L27.5886 13.8196Z" fill="#3F2819"/>
  <path id="Vector_2" d="M85.0659 52C80.0205 52 75.4863 50.8236 71.468 48.4706C67.4497 46.1178 64.2644 42.9711 61.9074 39.026C59.5504 35.0809 58.3719 30.7247 58.3719 25.9528C58.3719 21.1808 59.5504 16.8388 61.9074 12.9268C64.2644 9.01472 67.4687 5.88225 71.5201 3.52935C75.5715 1.17645 80.0868 0 85.0659 0C90.045 0 94.7448 1.17645 98.7631 3.52935C102.781 5.88225 105.967 9.03362 108.324 12.974C110.681 16.9191 111.859 21.2422 111.859 25.948C111.859 30.6538 110.681 35.0809 108.324 39.0213C105.967 42.9664 102.763 46.113 98.7111 48.4659C94.6596 50.8188 90.1112 51.9953 85.0659 51.9953V52ZM85.0659 38.7756C87.5223 38.7756 89.6995 38.1944 91.5879 37.0369C93.4811 35.8793 94.9768 34.3391 96.0701 32.4114C97.1634 30.4885 97.7124 28.3671 97.7124 26.0472C97.7124 23.7274 97.1634 21.606 96.0701 19.6831C94.9768 17.7601 93.4811 16.2199 91.5879 15.0576C89.6947 13.9001 87.5176 13.3189 85.0659 13.3189C82.6142 13.3189 80.5317 13.9001 78.6432 15.0576C76.75 16.2199 75.2591 17.7601 74.1611 19.6831C73.0678 21.606 72.5187 23.7274 72.5187 26.0472C72.5187 28.3671 73.0678 30.4885 74.1611 32.4114C75.2544 34.3344 76.75 35.8746 78.6432 37.0369C80.5364 38.1992 82.6757 38.7756 85.0659 38.7756Z" fill="#3F2819"/>
  <path id="Vector_3" d="M143.305 52C138.26 52 133.726 50.8236 129.707 48.4706C125.689 46.1178 122.504 42.9711 120.147 39.026C117.79 35.0809 116.611 30.7247 116.611 25.9528C116.611 21.1808 117.79 16.8388 120.147 12.9268C122.504 9.01472 125.708 5.88225 129.759 3.52935C133.811 1.17645 138.326 0 143.305 0C148.284 0 152.984 1.17645 157.003 3.52935C161.021 5.88225 164.206 9.03362 166.563 12.974C168.92 16.9191 170.099 21.2422 170.099 25.948C170.099 30.6538 168.92 35.0809 166.563 39.0213C164.206 42.9664 161.002 46.113 156.95 48.4659C152.899 50.8188 148.351 51.9953 143.305 51.9953V52ZM143.305 38.7756C145.762 38.7756 147.939 38.1944 149.827 37.0369C151.721 35.8793 153.216 34.3391 154.309 32.4114C155.408 30.4885 155.952 28.3671 155.952 26.0472C155.952 23.7274 155.403 21.606 154.309 19.6831C153.216 17.7601 151.721 16.2199 149.827 15.0576C147.934 13.9001 145.757 13.3189 143.305 13.3189C140.854 13.3189 138.771 13.9001 136.883 15.0576C134.989 16.2199 133.494 17.7601 132.4 19.6831C131.302 21.606 130.758 23.7274 130.758 26.0472C130.758 28.3671 131.307 30.4885 132.4 32.4114C133.494 34.3344 134.989 35.8746 136.883 37.0369C138.776 38.1992 140.915 38.7756 143.305 38.7756Z" fill="#3F2819"/>
  <path id="Vector_4" d="M189.144 50.7103H175.002V1.49316H189.144V50.7103ZM186.854 31.1217V20.5809H198.307V31.1217H186.854ZM226 50.7103H209.165L195.52 34.0085C193.527 31.4903 192.533 28.7736 192.533 25.8537C192.533 22.9338 193.56 20.3541 195.619 17.8973L209.165 1.49316H226L205.184 26.3498C205.184 26.2836 205.199 26.2175 205.232 26.1513C205.265 26.0852 205.284 25.986 205.284 25.8537C205.284 25.7875 205.251 25.6553 205.184 25.4568L226 50.7103Z" fill="#3F2819"/>
  <path d="M70.9948 26.4803C70.9948 18.7826 77.2459 12.542 84.9571 12.542C92.6682 12.542 98.9194 18.7826 98.9194 26.4803C98.9193 30.3759 97.3175 33.8975 94.7364 36.4266C94.8349 36.5206 94.9318 36.6241 95.0234 36.7311C95.2576 37.0047 95.5183 37.3701 95.7657 37.8334C95.9735 38.2226 96.106 38.6973 96.2062 39.1581C96.3099 39.6348 96.397 40.187 96.4812 40.7744C96.5082 40.9622 96.5254 41.1445 96.5386 41.3091C97.0953 41.2344 97.6311 41.5883 97.7699 42.1452C97.9186 42.7426 97.5543 43.3473 96.9559 43.4961C96.5265 43.6028 96.2155 43.654 95.9562 43.6752C95.9123 43.6787 95.4842 43.7383 95.0784 43.5026C94.6113 43.2311 94.4697 42.7757 94.417 42.5429C94.3894 42.4206 94.3717 42.2822 94.3593 42.1502L94.3084 41.4406C94.2985 41.3237 94.2863 41.2072 94.2696 41.0904C94.1864 40.5103 94.1088 40.0248 94.0232 39.631C93.9342 39.2217 93.853 38.9924 93.7944 38.8826C93.6228 38.5613 93.4536 38.3297 93.3253 38.1799C93.2611 38.105 93.0283 37.9066 92.9957 37.8768C91.7923 38.7242 90.4487 39.3859 89.0065 39.8216C89.2896 40.2669 89.6036 40.8035 89.8768 41.3631C90.0394 41.6962 90.1479 42.0177 90.2216 42.3108C90.7422 42.2155 91.2729 42.5008 91.4668 43.0126C91.6849 43.5885 91.3938 44.232 90.8169 44.4498C90.5385 44.5549 90.379 44.6358 90.1065 44.7484C89.9999 44.7924 89.8585 44.8477 89.7136 44.8845L89.7091 44.8856C89.6163 44.9093 89.2542 45.0016 88.8636 44.8379L88.5068 44.6482L88.3178 44.3474C88.2355 44.1982 88.2047 44.0628 88.1934 44.0097C88.1793 43.9429 88.1723 43.8841 88.1685 43.8468C88.1613 43.7767 88.1577 43.7007 88.1553 43.6508L88.1551 43.6461L88.154 43.6238C88.1488 43.5136 88.1436 43.4037 88.1296 43.2751C88.1004 43.0059 88.0342 42.6794 87.8685 42.3399C87.5936 41.7767 87.2616 41.2234 86.9792 40.7965C86.8488 40.5994 86.7332 40.4359 86.6437 40.3162C86.0907 40.3827 85.528 40.4182 84.9571 40.4182C77.246 40.4182 70.9949 34.1779 70.9948 26.4803Z" fill="#DAE9A5"/>
  <path id="Vector (Stroke)" d="M91.9036 20.0732C91.6277 19.5225 90.9568 19.2991 90.4051 19.5744C89.8534 19.8498 89.6296 20.5199 89.9055 21.0707L89.9979 21.2557C90.2738 21.8065 90.9451 22.0294 91.4969 21.754C92.0485 21.4786 92.2723 20.8089 91.9965 20.2582L91.9036 20.0732Z" fill="#154444"/>
  <path id="Vector (Stroke)_2" d="M86.221 21.0469C86.0259 20.4627 85.3932 20.1467 84.808 20.3414C84.2229 20.5362 83.9067 21.1677 84.1018 21.7519L84.1411 21.8709C84.3362 22.4551 84.9689 22.7706 85.554 22.5759C86.1393 22.3811 86.4559 21.7496 86.2607 21.1654L86.221 21.0469Z" fill="#154444"/>
  <path id="Vector 1767 (Stroke)" d="M89.2165 22.6717V22.6431C89.2165 22.3352 88.9666 22.0857 88.6581 22.0857C88.3497 22.0857 88.0998 22.3352 88.0998 22.6431V22.6717C88.0998 22.6921 88.0995 22.7568 88.1049 22.8221C88.1111 22.897 88.1244 22.9657 88.1418 23.0583C88.1988 23.3609 88.4909 23.5599 88.794 23.5031C89.0971 23.4463 89.2969 23.1551 89.24 22.8525C89.2297 22.7975 89.2241 22.7685 89.2206 22.7483C89.2192 22.7396 89.2186 22.7351 89.2183 22.733C89.2181 22.7317 89.2179 22.731 89.2179 22.7303C89.2175 22.726 89.2172 22.7178 89.2169 22.7058L89.2165 22.6717Z" fill="#154444"/>
  <path id="Vector 1768 (Stroke)" d="M90.2981 24.1848C90.025 24.1848 89.7985 24.3804 89.7499 24.6388C89.7468 24.6465 89.7421 24.6574 89.7356 24.6716C89.7106 24.7256 89.6698 24.8026 89.6154 24.8908C89.5032 25.0726 89.36 25.2588 89.2221 25.3798C89.0683 25.5148 88.8467 25.5458 88.5135 25.4836C88.3937 25.3933 88.2334 25.2529 88.1257 25.145C88.0673 25.0864 88.0504 25.0622 88.0467 25.0569C88.0455 25.0542 88.0428 25.0485 88.0388 25.0375C87.9332 24.7482 87.6126 24.5995 87.3229 24.7048C87.0331 24.8102 86.8837 25.1298 86.9891 25.419C87.016 25.4926 87.0522 25.5799 87.1181 25.6779C87.1785 25.7678 87.2521 25.8492 87.3344 25.9317C87.489 26.0865 87.766 26.3353 87.9833 26.4752L88.0661 26.5287L88.1622 26.5504C88.621 26.6546 89.3601 26.7434 89.9597 26.2173C90.212 25.9959 90.4227 25.7086 90.5666 25.4753C90.6402 25.356 90.703 25.2397 90.7496 25.139C90.7727 25.0892 90.7948 25.0363 90.8125 24.9844C90.824 24.9507 90.8564 24.8545 90.8564 24.7422C90.8564 24.4343 90.6065 24.1848 90.2981 24.1848Z" fill="#154444"/>
  <path id="Vector 1771 (Stroke)" d="M75.2828 16.8025C75.1319 16.6484 74.8843 16.6456 74.7299 16.7962C74.3479 17.169 74.1379 17.5851 74.145 18.0278C74.1521 18.4644 74.3695 18.8454 74.6688 19.1553C75.2581 19.7654 76.2784 20.2223 77.3364 20.4765C78.4023 20.7327 79.5866 20.8028 80.5432 20.5702C81.1712 20.4175 81.746 20.1174 82.0919 19.623C83.4296 19.6497 84.3219 19.2507 84.8847 18.6438C85.3371 18.1559 85.5417 17.5709 85.6196 17.0624C87.4847 17.3086 88.8473 16.8684 89.4665 15.987C89.8044 15.5058 89.8892 14.9276 89.7208 14.356C89.5548 13.7922 89.1503 13.2536 88.5428 12.7986C88.3701 12.6692 88.1248 12.7042 87.9952 12.8766C87.8658 13.049 87.9007 13.2936 88.0732 13.4229C88.5823 13.8042 88.8635 14.2125 88.9707 14.5762C89.0755 14.9321 89.0206 15.2621 88.8264 15.5387C88.4268 16.1077 87.3125 16.5842 85.3382 16.2289C85.2259 16.2087 85.1102 16.2387 85.0217 16.3105C84.9334 16.3823 84.8807 16.4891 84.8776 16.6028C84.8652 17.0724 84.728 17.6639 84.311 18.1136C83.9666 18.485 83.3879 18.8047 82.4018 18.8398C82.4103 18.7855 82.4174 18.7299 82.4218 18.6728C82.4828 17.8929 82.275 17.2904 81.723 17.0975C81.2385 16.9284 80.7221 17.1762 80.4099 17.462C80.1004 17.7452 79.7916 18.2571 80.0238 18.7818C80.1865 19.1493 80.5601 19.3855 81.0945 19.5115C80.8991 19.6396 80.6534 19.74 80.3583 19.8118C79.5595 20.006 78.5077 19.9553 77.5193 19.7178C76.5234 19.4785 75.6713 19.0686 75.2317 18.6135C75.0166 18.3908 74.9298 18.1891 74.927 18.0154C74.9243 17.8478 74.9981 17.6255 75.2763 17.354C75.4307 17.2034 75.4336 16.9566 75.2828 16.8025ZM81.2482 17.8501C81.3529 17.8155 81.4248 17.8204 81.4648 17.8343C81.493 17.8442 81.5395 17.8691 81.5824 17.9698C81.6299 18.0816 81.6684 18.2817 81.6426 18.612C81.6372 18.6809 81.626 18.7469 81.6106 18.8104C81.3215 18.7764 81.1174 18.7197 80.9782 18.6566C80.8063 18.5785 80.7547 18.5024 80.7388 18.4667C80.7237 18.4324 80.7174 18.3817 80.7466 18.303C80.7773 18.2208 80.8421 18.1252 80.9382 18.0372C81.0338 17.9498 81.145 17.8843 81.2482 17.8501Z" fill="#154444"/>
  <path d="M157.135 26.4803C157.135 18.7826 150.884 12.542 143.173 12.542C135.462 12.542 129.21 18.7826 129.21 26.4803C129.211 30.3759 130.812 33.8975 133.393 36.4266C133.295 36.5206 133.198 36.6241 133.106 36.7311C132.872 37.0047 132.612 37.3701 132.364 37.8334C132.156 38.2226 132.024 38.6973 131.924 39.1581C131.82 39.6348 131.733 40.187 131.649 40.7744C131.622 40.9622 131.604 41.1445 131.591 41.3091C131.035 41.2344 130.499 41.5883 130.36 42.1452C130.211 42.7426 130.576 43.3473 131.174 43.4961C131.603 43.6028 131.914 43.654 132.174 43.6752C132.218 43.6787 132.646 43.7383 133.051 43.5026C133.519 43.2311 133.66 42.7757 133.713 42.5429C133.74 42.4206 133.758 42.2822 133.771 42.1502L133.821 41.4406C133.831 41.3237 133.844 41.2072 133.86 41.0904C133.943 40.5103 134.021 40.0248 134.107 39.631C134.196 39.2217 134.277 38.9924 134.335 38.8826C134.507 38.5613 134.676 38.3297 134.805 38.1799C134.869 38.105 135.102 37.9066 135.134 37.8768C136.338 38.7242 137.681 39.3859 139.123 39.8216C138.84 40.2669 138.526 40.8035 138.253 41.3631C138.09 41.6962 137.982 42.0177 137.908 42.3108C137.388 42.2155 136.857 42.5008 136.663 43.0126C136.445 43.5885 136.736 44.232 137.313 44.4498C137.591 44.5549 137.751 44.6358 138.023 44.7484C138.13 44.7924 138.271 44.8477 138.416 44.8845L138.421 44.8856C138.514 44.9093 138.876 45.0016 139.266 44.8379L139.623 44.6482L139.812 44.3474C139.894 44.1982 139.925 44.0628 139.936 44.0097C139.951 43.9429 139.958 43.8841 139.961 43.8468C139.969 43.7767 139.972 43.7007 139.975 43.6508L139.975 43.6461L139.976 43.6238C139.981 43.5136 139.986 43.4037 140 43.2751C140.029 43.0059 140.096 42.6794 140.261 42.3399C140.536 41.7767 140.868 41.2234 141.151 40.7965C141.281 40.5994 141.397 40.4359 141.486 40.3162C142.039 40.3827 142.602 40.4182 143.173 40.4182C150.884 40.4182 157.135 34.1779 157.135 26.4803Z" fill="#EFA6D5"/>
  <path id="Vector (Stroke)_3" d="M136.226 20.0732C136.502 19.5225 137.173 19.2991 137.725 19.5744C138.276 19.8498 138.5 20.5199 138.224 21.0707L138.132 21.2557C137.856 21.8065 137.185 22.0294 136.633 21.754C136.081 21.4786 135.858 20.8089 136.133 20.2582L136.226 20.0732Z" fill="#341544"/>
  <path id="Vector (Stroke)_4" d="M141.909 21.0469C142.104 20.4627 142.737 20.1467 143.322 20.3414C143.907 20.5362 144.223 21.1677 144.028 21.7519L143.989 21.8709C143.794 22.4551 143.161 22.7706 142.576 22.5759C141.991 22.3811 141.674 21.7496 141.869 21.1654L141.909 21.0469Z" fill="#341544"/>
  <path id="Vector 1767 (Stroke)_2" d="M138.913 22.6717V22.6431C138.913 22.3352 139.163 22.0857 139.472 22.0857C139.78 22.0857 140.03 22.3352 140.03 22.6431V22.6717C140.03 22.6921 140.03 22.7568 140.025 22.8221C140.019 22.897 140.005 22.9657 139.988 23.0583C139.931 23.3609 139.639 23.5599 139.336 23.5031C139.033 23.4463 138.833 23.1551 138.89 22.8525C138.9 22.7975 138.906 22.7685 138.909 22.7483C138.911 22.7396 138.911 22.7351 138.912 22.733C138.912 22.7317 138.912 22.731 138.912 22.7303C138.912 22.726 138.913 22.7178 138.913 22.7058L138.913 22.6717Z" fill="#341544"/>
  <path id="Vector 1768 (Stroke)_2" d="M137.832 24.1848C138.105 24.1848 138.331 24.3804 138.38 24.6388C138.383 24.6465 138.388 24.6574 138.394 24.6716C138.419 24.7256 138.46 24.8026 138.514 24.8908C138.627 25.0726 138.77 25.2588 138.908 25.3798C139.062 25.5148 139.283 25.5458 139.616 25.4836C139.736 25.3933 139.896 25.2529 140.004 25.145C140.063 25.0864 140.079 25.0622 140.083 25.0569C140.084 25.0542 140.087 25.0485 140.091 25.0375C140.197 24.7482 140.517 24.5995 140.807 24.7048C141.097 24.8102 141.246 25.1298 141.141 25.419C141.114 25.4926 141.078 25.5799 141.012 25.6779C140.951 25.7678 140.878 25.8492 140.795 25.9317C140.641 26.0865 140.364 26.3353 140.146 26.4752L140.064 26.5287L139.968 26.5504C139.509 26.6546 138.77 26.7434 138.17 26.2173C137.918 25.9959 137.707 25.7086 137.563 25.4753C137.49 25.356 137.427 25.2397 137.38 25.139C137.357 25.0892 137.335 25.0363 137.317 24.9844C137.306 24.9507 137.273 24.8545 137.273 24.7422C137.273 24.4343 137.523 24.1848 137.832 24.1848Z" fill="#341544"/>
  <path id="Vector 1771 (Stroke)_2" d="M152.847 16.8025C152.998 16.6484 153.246 16.6456 153.4 16.7962C153.782 17.169 153.992 17.5851 153.985 18.0278C153.978 18.4644 153.76 18.8454 153.461 19.1553C152.872 19.7654 151.851 20.2223 150.793 20.4765C149.728 20.7327 148.543 20.8028 147.587 20.5702C146.959 20.4175 146.384 20.1174 146.038 19.623C144.7 19.6497 143.808 19.2507 143.245 18.6438C142.793 18.1559 142.588 17.5709 142.51 17.0624C140.645 17.3086 139.283 16.8684 138.663 15.987C138.325 15.5058 138.241 14.9276 138.409 14.356C138.575 13.7922 138.98 13.2536 139.587 12.7986C139.76 12.6692 140.005 12.7042 140.135 12.8766C140.264 13.049 140.229 13.2936 140.057 13.4229C139.548 13.8042 139.266 14.2125 139.159 14.5762C139.054 14.9321 139.109 15.2621 139.303 15.5387C139.703 16.1077 140.817 16.5842 142.792 16.2289C142.904 16.2087 143.02 16.2387 143.108 16.3105C143.196 16.3823 143.249 16.4891 143.252 16.6028C143.265 17.0724 143.402 17.6639 143.819 18.1136C144.163 18.485 144.742 18.8047 145.728 18.8398C145.72 18.7855 145.712 18.7299 145.708 18.6728C145.647 17.8929 145.855 17.2904 146.407 17.0975C146.891 16.9284 147.408 17.1762 147.72 17.462C148.029 17.7452 148.338 18.2571 148.106 18.7818C147.943 19.1493 147.57 19.3855 147.035 19.5115C147.231 19.6396 147.476 19.74 147.772 19.8118C148.57 20.006 149.622 19.9553 150.611 19.7178C151.606 19.4785 152.459 19.0686 152.898 18.6135C153.113 18.3908 153.2 18.1891 153.203 18.0154C153.206 17.8478 153.132 17.6255 152.854 17.354C152.699 17.2034 152.696 16.9566 152.847 16.8025ZM146.882 17.8501C146.777 17.8155 146.705 17.8204 146.665 17.8343C146.637 17.8442 146.59 17.8691 146.547 17.9698C146.5 18.0816 146.461 18.2817 146.487 18.612C146.493 18.6809 146.504 18.7469 146.519 18.8104C146.808 18.7764 147.012 18.7197 147.152 18.6566C147.324 18.5785 147.375 18.5024 147.391 18.4667C147.406 18.4324 147.412 18.3817 147.383 18.303C147.353 18.2208 147.288 18.1252 147.192 18.0372C147.096 17.9498 146.985 17.8843 146.882 17.8501Z" fill="#341544"/>
</svg>
