<svg width="1184" height="17" viewBox="0 0 1184 17" fill="none" xmlns="http://www.w3.org/2000/svg">
<path d="M2.00052 2.00055C2.00052 2.00055 5.56509 14.2188 16.8034 14.2188C28.0417 14.2188 31.6463 2.00055 42.8846 2.00055C54.1229 2.00055 57.7276 14.2188 68.9659 14.2188C80.2042 14.2188 83.8088 2.00055 95.0471 2.00055C106.285 2.00055 109.89 14.2188 121.128 14.2188C132.367 14.2188 135.971 2.00055 147.21 2.00055C158.448 2.00055 162.053 14.2188 173.291 14.2188C184.529 14.2188 188.134 2.00055 199.372 2.00055C210.61 2.00055 214.215 14.2188 225.453 14.2188C236.692 14.2188 240.296 2.00055 251.535 2.00055C262.773 2.00055 266.378 14.2188 277.616 14.2188C288.854 14.2188 292.459 2.00054 303.697 2.00055C314.935 2.00055 318.54 14.2188 329.778 14.2188C341.017 14.2188 344.621 2.00055 355.86 2.00055C367.098 2.00055 370.702 14.2188 381.941 14.2188C393.179 14.2188 396.784 2.00055 408.022 2.00055C419.26 2.00055 422.865 14.2188 434.103 14.2188C445.342 14.2188 448.946 2.00055 460.185 2.00055C471.423 2.00054 475.027 14.2188 486.266 14.2188C497.504 14.2188 501.109 2.00055 512.347 2.00055C523.585 2.00055 527.19 14.2188 538.428 14.2188C549.667 14.2188 553.271 2.00054 564.51 2.00055C575.748 2.00055 579.352 14.2188 590.591 14.2188" stroke="#F1DEC4" stroke-width="4" stroke-linecap="round"/>
<path d="M590.826 14.2188C590.826 14.2188 582.642 14.2188 593.88 14.2188C605.118 14.2188 608.723 2.00055 619.961 2.00055C631.2 2.00055 634.804 14.2188 646.043 14.2188C657.281 14.2188 660.886 2.00055 672.124 2.00055C683.362 2.00055 686.967 14.2188 698.205 14.2188C709.443 14.2188 713.048 2.00055 724.286 2.00055C735.525 2.00055 739.129 14.2188 750.368 14.2188C761.606 14.2188 765.211 2.00055 776.449 2.00055C787.687 2.00055 791.292 14.2188 802.53 14.2188C813.768 14.2188 817.373 2.00055 828.611 2.00055C839.85 2.00055 843.454 14.2188 854.693 14.2188C865.931 14.2188 869.536 2.00054 880.774 2.00055C892.012 2.00055 895.617 14.2188 906.855 14.2188C918.093 14.2188 921.698 2.00055 932.936 2.00055C944.175 2.00055 947.779 14.2188 959.018 14.2188C970.256 14.2188 973.861 2.00055 985.099 2.00055C996.337 2.00055 999.942 14.2188 1011.18 14.2188C1022.42 14.2188 1026.02 2.00055 1037.26 2.00055C1048.5 2.00054 1052.1 14.2188 1063.34 14.2188C1074.58 14.2188 1078.19 2.00055 1089.42 2.00055C1100.66 2.00055 1104.27 14.2188 1115.51 14.2188C1126.74 14.2188 1130.35 2.00054 1141.59 2.00055C1152.82 2.00055 1156.43 14.2188 1167.67 14.2188C1178.91 14.2188 1182 2.00055 1182 2.00055" stroke="#F1DEC4" stroke-width="4" stroke-linecap="round"/>
</svg>
