<svg width="456" height="105" viewBox="0 0 456 105" fill="none" xmlns="http://www.w3.org/2000/svg">
  <path id="Vector" d="M55.6654 27.9052C50.308 27.9052 45.8864 29.2122 42.4008 31.8167C38.9151 34.4307 36.3749 37.8366 34.761 42.0534C33.1471 46.2702 32.3449 50.9831 32.3449 56.2111V102.386H3.81982V52.7957C3.81982 43.1601 5.72977 34.364 9.54967 26.3979C13.3696 18.4317 19.0994 12.0779 26.7296 7.32689C34.3694 2.57584 44.0147 0.200317 55.6654 0.200317C67.316 0.200317 76.9995 2.57584 84.7061 7.32689C92.4128 12.0779 98.1999 18.4031 102.087 26.3024C105.973 34.2018 107.912 43.036 107.912 52.8053V102.396H79.3774V56.2207C79.3774 51.1357 78.5083 46.4515 76.7607 42.1679C75.0131 37.8843 72.4442 34.4403 69.0254 31.8263C65.6066 29.2122 61.1565 27.9148 55.6558 27.9148L55.6654 27.9052Z" fill="#3F2819"/>
  <path id="Vector_2" d="M171.637 105C161.457 105 152.309 102.624 144.201 97.8734C136.093 93.1224 129.666 86.7686 124.911 78.8025C120.155 70.8364 117.777 62.0403 117.777 52.4046C117.777 42.7689 120.155 34.0015 124.911 26.1021C129.666 18.2028 136.131 11.8776 144.306 7.12657C152.481 2.37552 161.591 0 171.637 0C181.684 0 191.167 2.37552 199.274 7.12657C207.382 11.8776 213.809 18.241 218.565 26.1975C223.321 34.1636 225.698 42.893 225.698 52.3951C225.698 61.8971 223.321 70.8364 218.565 78.7929C213.809 86.759 207.344 93.1129 199.169 97.8639C190.995 102.615 181.817 104.99 171.637 104.99V105ZM171.637 78.2968C176.594 78.2968 180.987 77.1234 184.797 74.786C188.617 72.4487 191.635 69.3385 193.841 65.4461C196.047 61.5632 197.154 57.2797 197.154 52.5954C197.154 47.9111 196.047 43.6276 193.841 39.7447C191.635 35.8618 188.617 32.7517 184.797 30.4048C180.977 28.0674 176.584 26.894 171.637 26.894C166.691 26.894 162.489 28.0674 158.678 30.4048C154.858 32.7517 151.85 35.8618 149.635 39.7447C147.429 43.6276 146.321 47.9111 146.321 52.5954C146.321 57.2797 147.429 61.5632 149.635 65.4461C151.841 69.329 154.858 72.4391 158.678 74.786C162.498 77.1329 166.815 78.2968 171.637 78.2968Z" fill="#3F2819"/>
  <path id="Vector_3" d="M289.147 105C278.967 105 269.818 102.624 261.71 97.8734C253.603 93.1224 247.176 86.7686 242.42 78.8025C237.664 70.8364 235.286 62.0403 235.286 52.4046C235.286 42.7689 237.664 34.0015 242.42 26.1021C247.176 18.2028 253.641 11.8776 261.815 7.12657C269.99 2.37552 279.1 0 289.147 0C299.193 0 308.676 2.37552 316.784 7.12657C324.891 11.8776 331.318 18.241 336.074 26.1975C340.83 34.1636 343.208 42.893 343.208 52.3951C343.208 61.8971 340.83 70.8364 336.074 78.7929C331.318 86.759 324.853 93.1129 316.679 97.8639C308.504 102.615 299.327 104.99 289.147 104.99V105ZM289.147 78.2968C294.103 78.2968 298.496 77.1234 302.306 74.786C306.126 72.4487 309.144 69.3385 311.35 65.4461C313.565 61.5632 314.664 57.2797 314.664 52.5954C314.664 47.9111 313.556 43.6276 311.35 39.7447C309.144 35.8618 306.126 32.7517 302.306 30.4048C298.486 28.0674 294.093 26.894 289.147 26.894C284.2 26.894 279.998 28.0674 276.188 30.4048C272.368 32.7517 269.35 35.8618 267.144 39.7447C264.929 43.6276 263.83 47.9111 263.83 52.5954C263.83 57.2797 264.938 61.5632 267.144 65.4461C269.35 69.329 272.368 72.4391 276.188 74.786C280.008 77.1329 284.324 78.2968 289.147 78.2968Z" fill="#3F2819"/>
  <path id="Vector_4" d="M381.636 102.396H353.102V3.01489H381.636V102.396ZM377.014 62.8418V41.5575H400.124V62.8418H377.014ZM456 102.396H422.032L394.5 68.6709C390.479 63.5859 388.474 58.1003 388.474 52.2044C388.474 46.3086 390.546 41.0996 394.7 36.1386L422.032 3.01489H456L414 53.2062C414 53.0726 414.029 52.939 414.096 52.8055C414.163 52.6719 414.201 52.4716 414.201 52.2044C414.201 52.0709 414.134 51.8037 414 51.403L456 102.396Z" fill="#3F2819"/>
  <path d="M143.246 53.4702C143.246 37.9268 155.859 25.3255 171.418 25.3255C186.976 25.3255 199.589 37.9268 199.589 53.4702C199.589 61.3363 196.357 68.4472 191.149 73.5541C191.348 73.7439 191.544 73.9528 191.729 74.169C192.201 74.7213 192.727 75.4591 193.226 76.3947C193.645 77.1805 193.913 78.1391 194.115 79.0695C194.324 80.0321 194.5 81.1472 194.67 82.3332C194.724 82.7124 194.759 83.0805 194.786 83.413C195.909 83.2622 196.99 83.9767 197.27 85.1011C197.57 86.3074 196.835 87.5286 195.628 87.8291C194.761 88.0444 194.134 88.1478 193.611 88.1905C193.522 88.1978 192.658 88.318 191.84 87.8421C190.897 87.2939 190.611 86.3744 190.505 85.9042C190.449 85.6572 190.413 85.3778 190.388 85.1114L190.286 83.6785C190.266 83.4423 190.241 83.2071 190.207 82.9714C190.04 81.8001 189.883 80.8195 189.71 80.0245C189.531 79.1979 189.367 78.735 189.249 78.5133C188.903 77.8644 188.561 77.3969 188.302 77.0944C188.173 76.943 187.703 76.5426 187.637 76.4823C185.209 78.1935 182.498 79.5296 179.588 80.4093C180.159 81.3086 180.793 82.3919 181.344 83.522C181.672 84.1946 181.891 84.8438 182.04 85.4356C183.09 85.2431 184.161 85.8193 184.552 86.8527C184.992 88.0156 184.405 89.3149 183.241 89.7548C182.679 89.9669 182.357 90.1304 181.808 90.3576C181.593 90.4465 181.307 90.5581 181.015 90.6324L181.006 90.6348C180.819 90.6825 180.088 90.869 179.3 90.5383L178.58 90.1554L178.199 89.548C178.033 89.2467 177.97 88.9733 177.948 88.866C177.919 88.7313 177.905 88.6124 177.897 88.5371C177.883 88.3955 177.875 88.2421 177.871 88.1413L177.87 88.1318L177.868 88.087C177.858 87.8643 177.847 87.6424 177.819 87.3828C177.76 86.8392 177.626 86.1798 177.292 85.4943C176.737 84.3571 176.068 83.24 175.498 82.3779C175.235 81.9798 175.001 81.6497 174.821 81.408C173.705 81.5422 172.57 81.6139 171.418 81.6139C155.859 81.6139 143.246 69.0133 143.246 53.4702Z" fill="#DAE9A5"/>
  <path id="Vector (Stroke)" d="M185.434 40.5325C184.877 39.4206 183.523 38.9696 182.41 39.5254C181.297 40.0815 180.845 41.4346 181.402 42.5468L181.589 42.9204C182.145 44.0325 183.5 44.4826 184.613 43.9266C185.726 43.3704 186.178 42.0182 185.621 40.9061L185.434 40.5325Z" fill="#154444"/>
  <path id="Vector (Stroke)_2" d="M173.968 42.4984C173.574 41.3189 172.298 40.6809 171.117 41.0739C169.936 41.4672 169.299 42.7424 169.692 43.922L169.771 44.1624C170.165 45.3419 171.442 45.9791 172.622 45.5859C173.803 45.1926 174.442 43.9175 174.048 42.7378L173.968 42.4984Z" fill="#154444"/>
  <path id="Vector 1767 (Stroke)" d="M180.012 45.7793V45.7215C180.012 45.0998 179.507 44.5961 178.885 44.5961C178.263 44.5961 177.758 45.0998 177.758 45.7215V45.7793C177.758 45.8206 177.758 45.9511 177.769 46.083C177.781 46.2343 177.808 46.3729 177.843 46.56C177.958 47.171 178.548 47.5729 179.159 47.4581C179.771 47.3434 180.174 46.7554 180.059 46.1445C180.038 46.0333 180.027 45.9749 180.02 45.9339C180.017 45.9165 180.016 45.9073 180.015 45.9032C180.015 45.9004 180.014 45.899 180.014 45.8976C180.014 45.889 180.013 45.8724 180.013 45.8482L180.012 45.7793Z" fill="#154444"/>
  <path id="Vector 1768 (Stroke)" d="M182.194 48.8351C181.643 48.8351 181.186 49.23 181.088 49.7519C181.082 49.7674 181.073 49.7894 181.059 49.8181C181.009 49.9272 180.926 50.0825 180.817 50.2606C180.591 50.6278 180.301 51.0038 180.023 51.2482C179.713 51.5206 179.266 51.5832 178.593 51.4578C178.352 51.2753 178.028 50.9918 177.811 50.7739C177.693 50.6557 177.659 50.6068 177.652 50.596C177.649 50.5906 177.644 50.5791 177.636 50.5569C177.423 49.9728 176.776 49.6724 176.191 49.8851C175.607 50.0979 175.305 50.7433 175.518 51.3273C175.572 51.4758 175.645 51.6521 175.778 51.85C175.9 52.0315 176.048 52.1958 176.214 52.3624C176.526 52.6751 177.085 53.1774 177.524 53.4599L177.691 53.568L177.885 53.6118C178.81 53.8222 180.302 54.0016 181.512 52.9391C182.021 52.492 182.446 51.9121 182.736 51.441C182.885 51.2 183.011 50.9653 183.105 50.7618C183.152 50.6612 183.197 50.5544 183.232 50.4497C183.255 50.3817 183.321 50.1873 183.321 49.9606C183.321 49.3389 182.817 48.8351 182.194 48.8351Z" fill="#154444"/>
  <path id="Vector 1771 (Stroke)" d="M151.898 33.9284C151.593 33.6172 151.094 33.6115 150.782 33.9158C150.011 34.6685 149.588 35.5086 149.602 36.4025C149.616 37.2842 150.055 38.0534 150.659 38.6792C151.848 39.9112 153.907 40.8338 156.041 41.3471C158.192 41.8643 160.581 42.0058 162.512 41.5362C163.779 41.2279 164.939 40.6219 165.636 39.6236C168.336 39.6776 170.136 38.872 171.272 37.6464C172.184 36.6613 172.597 35.4799 172.754 34.4531C176.518 34.9503 179.267 34.0615 180.516 32.2816C181.198 31.3101 181.369 30.1426 181.029 28.9883C180.694 27.85 179.878 26.7623 178.652 25.8435C178.304 25.5823 177.809 25.653 177.548 26.0012C177.286 26.3492 177.357 26.843 177.705 27.1042C178.732 27.8741 179.3 28.6985 179.516 29.4329C179.727 30.1515 179.616 30.818 179.225 31.3765C178.418 32.5253 176.17 33.4875 172.186 32.7701C171.96 32.7293 171.726 32.7898 171.548 32.9349C171.37 33.0799 171.263 33.2956 171.257 33.5252C171.232 34.4734 170.955 35.6678 170.114 36.5757C169.419 37.3257 168.251 37.9712 166.262 38.0422C166.279 37.9325 166.293 37.8203 166.302 37.705C166.425 36.1301 166.006 34.9135 164.892 34.5241C163.915 34.1825 162.873 34.683 162.243 35.26C161.618 35.832 160.995 36.8656 161.464 37.925C161.792 38.6671 162.546 39.144 163.624 39.3986C163.23 39.6572 162.734 39.8599 162.139 40.0048C160.527 40.3969 158.405 40.2946 156.41 39.815C154.401 39.3318 152.682 38.5043 151.795 37.5852C151.361 37.1354 151.186 36.7281 151.18 36.3775C151.174 36.0391 151.323 35.5903 151.885 35.042C152.196 34.7379 152.202 34.2396 151.898 33.9284ZM163.934 36.0437C164.145 35.9738 164.291 35.9837 164.371 36.0119C164.428 36.0318 164.522 36.082 164.608 36.2854C164.704 36.5112 164.782 36.9152 164.73 37.5822C164.719 37.7213 164.696 37.8546 164.665 37.9828C164.082 37.9141 163.67 37.7997 163.389 37.6722C163.042 37.5146 162.938 37.3609 162.906 37.2887C162.876 37.2196 162.863 37.1171 162.922 36.9583C162.984 36.7923 163.115 36.5993 163.309 36.4216C163.502 36.245 163.726 36.1127 163.934 36.0437Z" fill="#154444"/>
  <path d="M317.051 53.4702C317.051 37.9268 304.439 25.3255 288.88 25.3255C273.321 25.3255 260.708 37.9268 260.708 53.4702C260.708 61.3363 263.94 68.4472 269.148 73.5541C268.949 73.7439 268.754 73.9528 268.569 74.169C268.096 74.7213 267.57 75.4591 267.071 76.3947C266.652 77.1805 266.384 78.1391 266.182 79.0695C265.973 80.0321 265.797 81.1472 265.627 82.3332C265.573 82.7124 265.538 83.0805 265.512 83.413C264.388 83.2622 263.307 83.9767 263.027 85.1011C262.727 86.3074 263.462 87.5286 264.67 87.8291C265.536 88.0444 266.164 88.1478 266.687 88.1905C266.775 88.1978 267.639 88.318 268.458 87.8421C269.4 87.2939 269.686 86.3744 269.792 85.9042C269.848 85.6572 269.884 85.3778 269.909 85.1114L270.012 83.6785C270.031 83.4423 270.056 83.2071 270.09 82.9714C270.258 81.8001 270.414 80.8195 270.587 80.0245C270.767 79.1979 270.931 78.735 271.049 78.5133C271.395 77.8644 271.736 77.3969 271.995 77.0944C272.125 76.943 272.594 76.5426 272.66 76.4823C275.088 78.1935 277.799 79.5296 280.709 80.4093C280.138 81.3086 279.504 82.3919 278.953 83.522C278.625 84.1946 278.406 84.8438 278.258 85.4356C277.207 85.2431 276.136 85.8193 275.745 86.8527C275.305 88.0156 275.892 89.3149 277.056 89.7548C277.618 89.9669 277.94 90.1304 278.49 90.3576C278.705 90.4465 278.99 90.5581 279.282 90.6324L279.292 90.6348C279.479 90.6825 280.209 90.869 280.997 90.5383L281.717 90.1554L282.099 89.548C282.265 89.2467 282.327 88.9733 282.35 88.866C282.378 88.7313 282.392 88.6124 282.4 88.5371C282.415 88.3955 282.422 88.2421 282.427 88.1413L282.427 88.1318L282.429 88.087C282.44 87.8643 282.45 87.6424 282.478 87.3828C282.537 86.8392 282.671 86.1798 283.005 85.4943C283.56 84.3571 284.23 83.24 284.8 82.3779C285.063 81.9798 285.296 81.6497 285.477 81.408C286.592 81.5422 287.728 81.6139 288.88 81.6139C304.438 81.6139 317.051 69.0133 317.051 53.4702Z" fill="#EFA6D5"/>
  <path id="Vector (Stroke)_3" d="M274.864 40.5325C275.42 39.4206 276.774 38.9696 277.887 39.5254C279 40.0815 279.452 41.4346 278.895 42.5468L278.709 42.9204C278.152 44.0325 276.798 44.4826 275.684 43.9266C274.571 43.3704 274.12 42.0182 274.676 40.9061L274.864 40.5325Z" fill="#341544"/>
  <path id="Vector (Stroke)_4" d="M286.329 42.4984C286.723 41.3189 288 40.6809 289.18 41.0739C290.361 41.4672 290.999 42.7424 290.605 43.922L290.526 44.1624C290.132 45.3419 288.856 45.9791 287.675 45.5859C286.494 45.1926 285.855 43.9175 286.249 42.7378L286.329 42.4984Z" fill="#341544"/>
  <path id="Vector 1767 (Stroke)_2" d="M280.286 45.7793V45.7215C280.286 45.0998 280.79 44.5961 281.412 44.5961C282.035 44.5961 282.539 45.0998 282.539 45.7215V45.7793C282.539 45.8206 282.54 45.9511 282.529 46.083C282.516 46.2343 282.489 46.3729 282.454 46.56C282.339 47.171 281.75 47.5729 281.138 47.4581C280.527 47.3434 280.124 46.7554 280.238 46.1445C280.259 46.0333 280.27 45.9749 280.277 45.9339C280.28 45.9165 280.282 45.9073 280.282 45.9032C280.282 45.9004 280.283 45.899 280.283 45.8976C280.284 45.889 280.284 45.8724 280.285 45.8482L280.286 45.7793Z" fill="#341544"/>
  <path id="Vector 1768 (Stroke)_2" d="M278.103 48.8351C278.654 48.8351 279.111 49.23 279.209 49.7519C279.216 49.7674 279.225 49.7894 279.238 49.8181C279.289 49.9272 279.371 50.0825 279.481 50.2606C279.707 50.6278 279.996 51.0038 280.274 51.2482C280.584 51.5206 281.032 51.5832 281.704 51.4578C281.945 51.2753 282.269 50.9918 282.486 50.7739C282.604 50.6557 282.638 50.6068 282.646 50.596C282.648 50.5906 282.654 50.5791 282.662 50.5569C282.875 49.9728 283.522 49.6724 284.106 49.8851C284.691 50.0979 284.992 50.7433 284.78 51.3273C284.725 51.4758 284.652 51.6521 284.519 51.85C284.397 52.0315 284.249 52.1958 284.083 52.3624C283.771 52.6751 283.212 53.1774 282.774 53.4599L282.607 53.568L282.413 53.6118C281.487 53.8222 279.996 54.0016 278.786 52.9391C278.277 52.492 277.852 51.9121 277.561 51.441C277.413 51.2 277.286 50.9653 277.192 50.7618C277.146 50.6612 277.101 50.5544 277.065 50.4497C277.042 50.3817 276.977 50.1873 276.977 49.9606C276.977 49.3389 277.481 48.8351 278.103 48.8351Z" fill="#341544"/>
  <path id="Vector 1771 (Stroke)_2" d="M308.4 33.9284C308.704 33.6172 309.204 33.6115 309.515 33.9158C310.286 34.6685 310.71 35.5086 310.695 36.4025C310.681 37.2842 310.242 38.0534 309.638 38.6792C308.449 39.9112 306.391 40.8338 304.256 41.3471C302.105 41.8643 299.716 42.0058 297.786 41.5362C296.518 41.2279 295.359 40.6219 294.661 39.6236C291.962 39.6776 290.161 38.872 289.026 37.6464C288.113 36.6613 287.7 35.4799 287.543 34.4531C283.78 34.9503 281.031 34.0615 279.781 32.2816C279.099 31.3101 278.928 30.1426 279.268 28.9883C279.603 27.85 280.419 26.7623 281.645 25.8435C281.993 25.5823 282.488 25.653 282.75 26.0012C283.011 26.3492 282.941 26.843 282.592 27.1042C281.565 27.8741 280.998 28.6985 280.782 29.4329C280.57 30.1515 280.681 30.818 281.073 31.3765C281.879 32.5253 284.127 33.4875 288.111 32.7701C288.337 32.7293 288.571 32.7898 288.749 32.9349C288.928 33.0799 289.034 33.2956 289.04 33.5252C289.065 34.4734 289.342 35.6678 290.183 36.5757C290.878 37.3257 292.046 37.9712 294.036 38.0422C294.018 37.9325 294.004 37.8203 293.995 37.705C293.872 36.1301 294.291 34.9135 295.405 34.5241C296.383 34.1825 297.425 34.683 298.055 35.26C298.679 35.832 299.302 36.8656 298.834 37.925C298.505 38.6671 297.752 39.144 296.673 39.3986C297.068 39.6572 297.563 39.8599 298.159 40.0048C299.77 40.3969 301.893 40.2946 303.887 39.815C305.896 39.3318 307.616 38.5043 308.503 37.5852C308.937 37.1354 309.112 36.7281 309.118 36.3775C309.123 36.0391 308.974 35.5903 308.413 35.042C308.101 34.7379 308.095 34.2396 308.4 33.9284ZM296.363 36.0437C296.152 35.9738 296.007 35.9837 295.926 36.0119C295.869 36.0318 295.775 36.082 295.689 36.2854C295.593 36.5112 295.515 36.9152 295.568 37.5822C295.578 37.7213 295.601 37.8546 295.632 37.9828C296.215 37.9141 296.627 37.7997 296.908 37.6722C297.255 37.5146 297.359 37.3609 297.391 37.2887C297.422 37.2196 297.434 37.1171 297.375 36.9583C297.313 36.7923 297.183 36.5993 296.989 36.4216C296.796 36.245 296.571 36.1127 296.363 36.0437Z" fill="#341544"/>
</svg>
