<svg width="487" height="191" viewBox="0 0 487 191" fill="none" xmlns="http://www.w3.org/2000/svg">
<path d="M219.607 -288.752C222.284 -288.93 224.965 -289.04 227.648 -289.082C227.682 -288.028 227.655 -286.975 227.577 -285.924C227.064 -278.997 227.348 -271.647 226.434 -264.761C232.144 -265.547 237.962 -265.412 243.722 -265.623C251.321 -265.958 258.92 -266.349 266.514 -266.797C266.405 -269.931 266.567 -273.636 266.641 -276.816C266.552 -279.248 266.1 -283.255 266.709 -285.452C267.249 -287.397 268.871 -288.088 270.528 -288.916C273.699 -288.296 276.898 -287.813 280.116 -287.469C283.66 -287.176 287.179 -286.403 290.673 -285.726C299.201 -284.131 307.637 -282.086 315.949 -279.6C372.843 -262.496 413.53 -232.603 445.141 -182.781C464.68 -153.476 478.754 -120.074 483.973 -85.1631C484.711 -80.2258 484.846 -74.8989 485.417 -69.9336C487.647 -50.5813 486.114 -31.2053 484.894 -11.8419C484.376 -3.67261 482.174 4.73947 479.86 12.5799C466.329 57.784 437.271 100.327 401.354 130.842C398.616 133.169 396.013 134.929 393.105 137.003C391.545 138.116 388.751 141.065 387.407 142.008C383.116 145.013 364.113 158.944 360.916 159.819C355.806 161.536 349.686 165.664 344.457 167.593C342.551 168.299 339.476 167.702 337.99 169.227C338.596 171.031 337.578 172.396 335.658 172.811C333.915 173.185 333.732 171.031 333.565 169.68L333.23 169.543L332.337 169.943C331.849 171.445 331.52 172.695 331.136 174.225C322.556 178.221 317.697 179.26 308.961 181.683L291.614 186.56C289.229 187.225 284.381 187.698 282.584 188.54C279.408 189.304 276.14 189.878 272.892 190.242C270.236 190.541 267.112 190.49 266.836 187.23C266.438 185.414 266.486 182.543 266.46 180.591C256.705 180.535 246.48 179.716 236.684 179.541C230.552 179.432 226.199 178.421 219.924 179.099C219.969 182.45 219.581 186.684 219.35 190.098C218.34 190.187 215.009 190.523 214.337 190.343C210.597 189.337 214.193 181.456 212.625 178.681C206.934 175.904 174.905 181.097 166.607 179.69C164.72 179.369 151.894 174.731 150.826 173.78L150.902 173.464C152.389 173.059 153.709 173.115 153.737 171.43C152.543 169.71 144.087 170.535 141.645 169.814C139.261 169.108 132.483 166.862 132.044 164.23L132.366 163.81C133.999 163.456 137.497 163.572 139.382 163.542C143.808 163.494 148.233 163.405 152.658 163.284C152.759 161.533 153.077 159.829 153.025 158.061C152.763 149.07 151.226 138.978 151.615 130.05C145.882 130.235 138.688 129.962 132.854 129.911C123.094 129.901 113.335 129.797 103.577 129.603C98.6436 129.479 93.6877 129.35 88.7563 129.064C87.8721 129.013 87.1769 129.198 86.412 129.618C84.7973 131.869 87.386 133.614 86.0182 134.712C83.2206 133.955 67.7985 118.229 64.8482 115.12C68.7301 114.668 73.2829 114.906 77.0692 114.212C76.0571 111.301 76.0528 106.357 75.5765 103.122C74.1988 93.7641 73.8758 84.5756 72.1335 75.2783C68.2968 74.5828 66.5915 75.6577 62.5114 75.6754C54.5085 75.7083 44.0337 76.9425 36.1439 76.6213C34.8137 76.5682 31.4443 70.1618 30.5628 68.624C44.1605 68.5532 58.12 68.4723 71.6855 68.184L68.2793 37.4493C67.629 31.2301 67.2083 24.7731 66.3129 18.6247C52.3116 18.5134 38.5792 17.7698 24.5273 18.8017C21.2728 19.042 12.4928 20.127 9.54204 18.3768C8.97345 18.0379 7.57215 11.4443 7.17677 10.0128C3.40328 -4.00391 1.16728 -18.3899 0.50809 -32.8897C0.358192 -35.5984 0.0533719 -38.7195 0.00907215 -41.3852C-0.107208 -43.7146 0.935002 -46.7597 0.810577 -48.9955C0.441565 -55.6296 1.74214 -62.1523 1.23614 -68.718C1.15838 -69.7269 0.884994 -71.5472 0.952459 -72.3869C1.81968 -83.183 3.62655 -94.0668 6.333 -104.554C7.09855 -107.528 9.86426 -107.868 10.0835 -110.094C9.87187 -110.944 9.13304 -111.321 8.38964 -111.89C8.61799 -113.287 11.0537 -122.988 11.6527 -123.27C12.1044 -121.393 11.6129 -104.985 11.6396 -101.623C11.6956 -94.5466 12.0379 -85.6431 11.8887 -78.5998C20.4536 -81.5483 22.3479 -81.2259 30.6615 -82.3068C42.9452 -83.904 54.5202 -83.9442 66.8587 -84.6056C68.1039 -94.6588 68.8278 -104.496 69.9089 -114.536C70.2438 -117.645 70.8984 -123.484 71.6317 -126.457C70.1667 -126.564 68.6631 -126.803 67.204 -127.005C66.5547 -127.605 66.4195 -127.774 65.6071 -128.185C65.2176 -127.382 64.7739 -126.691 63.8369 -126.538C60.879 -126.055 57.5979 -126.107 54.5968 -125.963C45.0308 -125.501 35.4589 -125.168 25.884 -124.963C23.3234 -124.888 13.8903 -124.801 11.8243 -124.27C13.1053 -127.501 13.7548 -131.093 15.406 -134.095C16.5478 -135.481 20.4059 -135.329 21.9343 -135.625C28.9515 -136.981 36.4923 -136.711 43.4582 -137.743C53.3277 -139.205 63.2561 -139.014 73.0642 -140.281C73.5567 -142.723 73.6099 -145.542 73.92 -148.061C76.0434 -165.318 78.0224 -182.511 79.1294 -199.861C69.538 -199.659 60.8059 -198.081 51.5283 -197.873C53.0083 -199.674 58.0132 -206.331 59.9636 -206.519C66.0333 -207.107 72.8891 -207.345 79.0178 -207.638C79.8469 -211.517 80.0699 -214.807 80.1118 -218.746C80.1458 -221.936 80.7113 -225.21 80.8339 -228.462C82.9246 -231.231 88.2436 -235.302 91.2106 -237.221C91.0601 -229.789 89.2689 -222.048 88.9679 -214.594C88.8888 -212.636 88.7802 -209.795 88.1735 -207.966C95.6908 -207.512 102.29 -208.893 109.514 -209.07C120.959 -209.351 132.621 -209.752 144.052 -209.943C143.563 -214.311 143.978 -219.85 144.047 -224.354L144.583 -253.275L144.098 -253.344C139.883 -253.981 118.006 -251.64 115.402 -253.827C116.612 -256.266 133.888 -265.048 137.266 -266.186C139.431 -266.915 143.638 -267.461 146.076 -267.676L146.922 -270.205C148.71 -271.263 153.802 -274.007 155.752 -273.211C156.051 -272.433 155.609 -269.879 155.9 -267.949L155.963 -267.552C162.144 -266.928 215.787 -264.352 217.371 -265.273C218.676 -268.249 219.392 -284.909 219.607 -288.752ZM81.0831 20.0385C81.0425 24.6972 81.2163 29.2194 81.3416 33.8655C81.6481 45.2443 81.2962 56.5421 82.1977 67.9032C92.3582 67.5087 103.534 68.2244 113.77 68.2244C124.655 68.227 135.52 67.8451 146.377 67.8172L150.425 67.8046C151.008 63.6415 149.738 60.5686 149.752 56.6888C149.796 45.085 148.08 33.4279 147.573 21.9328C131.988 20.8503 116.371 20.2939 100.748 20.2686C96.8226 20.2256 89.2519 19.6717 85.8451 19.8918C84.1614 19.993 82.7688 20.0562 81.0831 20.0385ZM335.772 -182.326C336.454 -183.281 335.833 -184.2 335.404 -185.247C334.087 -185.532 331.322 -186.402 330.314 -186.403C329.738 -185.436 329.759 -185.493 329.68 -184.368C330.451 -182.928 334.039 -182.751 335.772 -182.326ZM101.372 117.543C101.842 117.116 103.243 115.826 103.746 115.667C107.393 114.521 114.331 115.171 118.245 115.303C129.645 115.538 140.151 115.045 151.384 115.09C151.166 112.515 151.259 109.569 151.332 106.964C151.627 96.4905 151.405 86.0374 151.276 75.5641C139.726 75.2353 124.028 74.3653 112.825 74.7978C102.833 75.0153 91.7345 75.0836 81.8384 75.6678C82.1324 77.5343 82.2027 79.024 82.3258 80.8729C82.991 90.8682 83.3828 100.858 83.9169 110.859C83.9904 112.235 84.1526 113.143 83.9732 114.541C86.961 114.572 98.586 113.987 100.283 115.601C100.776 116.069 101.087 116.934 101.372 117.543ZM113.724 -201.418C105.145 -200.727 96.5425 -200.345 87.9353 -200.274C88.0441 -195.075 86.962 -188.405 86.7015 -183.02C86.0299 -169.141 84.9444 -155.328 83.8364 -141.476C94.7114 -141.578 105.851 -140.971 116.605 -141.107C126.078 -141.238 136.199 -141.629 145.585 -141.501C145.616 -146.397 146.017 -149.92 145.55 -154.978C144.18 -169.826 145.278 -185.362 144.417 -200.189C139.388 -200.444 134.354 -200.686 129.328 -200.987C124.151 -201.296 118.915 -201.834 113.724 -201.418ZM81.065 -32.9529C81.5134 -27.3483 80.9453 -19.2169 80.9737 -13.3163L81.1523 -0.245575C81.1863 1.72214 81.3868 4.68384 81.1564 6.51495C85.2882 6.37585 90.3459 6.66418 94.5419 6.79822L147.101 8.1918C146.867 5.64493 147.013 3.21692 146.903 0.690247C146.476 -9.12549 146.587 -18.9514 146.41 -28.7722C146.374 -30.7778 146.393 -32.7177 146.564 -34.7208C142.523 -35.1179 138.157 -35.2975 134.099 -34.9586C122.288 -34.5337 110.414 -34.6677 98.551 -34.2124C93.0237 -34 86.1491 -32.9883 81.065 -32.9529ZM180.154 -200.63L156.896 -200.269C157.849 -195.596 157.645 -190.773 157.978 -186.039C158.137 -183.783 158.474 -181.519 158.642 -179.265C159.406 -168.998 159.431 -158.685 160.065 -148.411C160.213 -146.031 160.643 -143.745 160.84 -141.415C164.044 -141.452 167.207 -141.31 170.406 -141.239C177.314 -141.088 184.385 -141.413 191.285 -141.764L214.628 -142.079C214.679 -153.089 215.338 -164.099 215.358 -175.23C215.371 -182.682 214.767 -193.233 215.251 -200.31C203.978 -200.473 191.322 -200.938 180.154 -200.63ZM154.982 -253.284C155.302 -240.767 156.084 -228.131 156.589 -215.611C156.658 -213.89 156.842 -212.253 156.808 -210.516C159.487 -210.362 162.356 -210.261 165.025 -210.624C179.24 -210.949 193.444 -211.298 207.656 -211.754C210.316 -211.839 212.992 -211.905 215.652 -211.903C215.583 -214.447 215.961 -216.187 216.044 -218.623L216.572 -233.801C216.766 -238.545 216.695 -243.141 217.214 -247.909C217.467 -250.231 217.102 -253.058 217.294 -255.51C213.833 -255.158 210.894 -255.837 207.393 -255.542C198.688 -254.933 189.1 -254.942 180.311 -254.761C171.657 -254.583 163.456 -253.718 154.982 -253.284ZM94.1662 -86.8743C104.028 -87.5132 113.818 -88.5946 123.713 -88.8713C125.778 -88.9292 127.938 -89.0926 129.985 -89.3756C129.284 -88.2271 128.616 -87.3321 128.33 -86.0288L128.468 -85.5303C129.881 -85.3125 133.452 -88.9196 135.421 -89.4644C138.653 -90.3585 143.04 -89.5916 146.047 -90.6721C147.117 -94.2312 146.517 -117.428 146.339 -122.406C146.275 -124.185 145.76 -127.298 145.337 -129.118C142.405 -128.98 140.208 -129.348 137.163 -129.041C127.964 -128.226 118.742 -127.696 109.51 -127.45C105.809 -127.328 104.625 -126.19 102.043 -128.905C101.464 -128.442 101.436 -128.344 100.992 -127.735C99.5864 -127.187 85.3983 -126.435 83.4607 -126.578C83.2453 -116.629 82.6422 -106.519 81.9617 -96.5881C81.7252 -93.1373 82.3217 -89.3306 82.0776 -85.7764C86.994 -86.7299 89.6685 -86.0022 94.1662 -86.8743ZM221.748 -142.16C227.091 -141.562 233.132 -142.07 238.632 -142.145C247.769 -142.204 256.903 -142.317 266.039 -142.483C266.613 -143.151 266.432 -144.069 266.394 -145.026C266.235 -152.338 266.554 -161.031 266.648 -168.464L266.43 -200.304C259.458 -200.44 252.394 -200.688 245.435 -200.75C238.762 -200.809 231.339 -200.115 224.702 -200.265C224.963 -197.208 224.713 -192.982 224.598 -189.841C224.406 -183.77 224.106 -177.703 223.699 -171.644C223.089 -162.07 222.699 -151.605 221.748 -142.16ZM8.96026 6.58072C14.0885 6.48462 20.8806 7.30911 26.3648 7.41281C29.3338 7.47098 38.3879 7.50891 40.7432 7.88577C41.4551 9.51202 37.3892 12.6988 37.7424 14.9422C39.3393 16.5356 46.8817 16.4875 48.0044 14.9245C47.808 14.0266 47.0052 13.1541 46.426 12.3903C46.6039 11.8389 47.6444 7.88577 47.6637 7.86047C53.72 7.55191 60.0721 7.54688 66.1541 7.45328C66.5149 -5.49612 65.1658 -19.7405 65.1192 -33.0566C60.0392 -33.3171 52.41 -32.7835 47.0925 -32.6317C39.7785 -32.4825 32.4683 -32.1917 25.1659 -31.7566C21.7072 -31.5518 16.6693 -31.3039 13.2517 -30.7475C11.8753 -38.2288 15.7346 -39.2177 6.9194 -39.8728C5.92699 -39.6704 4.66455 -39.5819 4.09901 -38.6714C2.80736 -36.5924 3.27008 -33.5675 5.12392 -31.9565C7.45797 -31.5063 8.38558 -34.0025 10.7059 -33.3652C11.2245 -32.4521 10.3669 -31.0358 9.96093 -30.0924C10.0259 -29.9634 10.0936 -29.8344 10.156 -29.7029C12.3122 -25.1656 8.48935 -0.74884 8.96026 6.58072ZM207.503 66.0164C208.405 65.9912 209.414 65.938 210.307 65.9684C210.16 60.1715 210.466 54.1824 210.504 48.3577C210.485 40.8486 210.401 33.3419 210.254 25.8354C206.549 25.6457 202.778 25.2435 199.044 25.0134L176.699 23.7463C172.196 23.4605 163.87 22.6435 159.489 22.8661C158.751 35.775 159.083 48.684 158.73 61.603C158.68 63.4392 159.087 66.1606 158.288 67.7186L158.349 67.888C159.278 67.8982 162.395 68.0018 163.204 67.7894C167.33 66.712 171.746 67.6124 175.615 67.2633C186.158 66.3149 196.975 66.4439 207.503 66.0164ZM153.502 -96.4353C153.744 -93.9438 153.785 -93.1902 154.69 -90.8039C154.689 -94.9295 154.733 -99.0318 154.91 -103.17C155.203 -110.022 154.698 -116.912 154.676 -123.767C154.675 -124.227 154.976 -124.706 155.154 -125.113C155.775 -126.701 153.852 -134.484 152.973 -135.431L152.766 -135.489C150.23 -134.119 148.432 -133.225 146.709 -130.8C148.453 -129.602 153.386 -124.26 153.551 -122.344C154.016 -116.945 153.325 -110.914 152.948 -105.537C152.787 -103.248 153.243 -98.8019 153.502 -96.4353ZM209.605 -31.1142C201.862 -32.265 193.659 -32.6772 185.816 -33.4132C181.275 -33.8381 172.394 -35.0749 168.172 -34.7436C166.034 -34.6247 163.666 -34.4451 161.544 -34.4325C161.2 -26.5718 160.362 -18.7718 160.072 -10.6835C159.939 -6.64435 159.834 -2.60782 159.757 1.43127C159.712 3.48752 159.741 6.53772 159.451 8.49023C164.54 8.58383 169.369 9.52466 174.286 9.80792L191.82 10.6552C194.691 10.7792 198.257 10.8196 201.068 11.1079C203.099 11.1636 207.678 11.6618 209.138 11.5556C210.656 9.83069 209.392 -26.2379 209.605 -31.1142ZM375.895 8.17917L373.498 11.4469C374.733 13.3969 375.55 15.3291 376.398 17.4714C379.171 18.9383 379.493 19.4163 382.426 18.0784C385.831 12.6432 378.973 11.1712 375.895 8.17917ZM286.71 58.0344C287.534 58.4365 287.636 58.6818 288.331 58.5275C290.275 55.6139 295.309 49.9233 288.159 49.1139C284.076 50.4316 284.571 54.7945 280.834 57.2351C282.792 57.4122 284.82 57.526 286.71 58.0344ZM266.422 129.888C259.93 130.263 250.905 129.777 244.153 129.752C236.699 129.721 227.628 130.323 220.391 130.04C220.615 132.402 220.472 134.605 220.396 136.968C220.129 145.301 220.593 153.726 221.285 162.029C221.395 163.342 221.45 164.369 221.369 165.684C227.054 165.621 232.703 166.086 238.363 166.503C247.675 167.189 257.179 167.811 266.509 167.717C266.46 165.901 266.364 164.131 266.542 162.323C266.328 160.082 266.597 153.066 266.615 150.483C266.656 144.909 266.349 138.574 266.547 133.1C266.473 131.988 266.387 131.009 266.422 129.888ZM281.991 126.638C285.672 127.954 285.388 129.585 288.641 129.883L290.607 128.786C290.797 127.698 290.909 127.979 290.536 127.109C288.77 125.776 284.315 126.464 281.991 126.638ZM280.352 -13.1115C281.762 -12.5677 282.475 -12.1934 283.995 -12.0922C284.98 -12.3173 285.104 -12.2592 285.515 -12.8712C285.243 -13.6072 284.688 -13.9309 284.064 -14.4444C283.084 -15.1424 282.308 -15.7292 281.242 -16.3083L280.352 -13.1115ZM154.774 -83.3104C153.467 -78.944 153.83 -73.3667 154.206 -68.8635C154.368 -66.9234 154.533 -65.8737 154.034 -63.9791C153.817 -62.2636 153.697 -60.5969 153.587 -58.877C153.396 -55.8774 152.114 -52.3972 153.63 -49.605L153.985 -49.5646C154.895 -51.3527 155.005 -61.0268 154.981 -63.6253C154.676 -65.07 154.669 -66.2369 154.752 -67.7117C155.042 -72.9142 154.881 -78.1028 154.774 -83.3104ZM141.866 -81.7909L81.6336 -75.6768C81.4578 -65.4506 81.4918 -56.6817 81.6438 -46.5017C83.3188 -46.2539 85.2185 -45.9251 86.8874 -45.8619C97.7789 -46.8862 107.621 -46.7572 118.544 -46.7673C127.889 -46.7749 137.194 -47.0253 146.537 -46.9899C146.265 -50.2475 146.538 -55.1566 146.598 -58.5381C146.678 -63.6253 146.658 -68.7135 146.539 -73.7997C146.499 -75.8552 146.484 -79.5627 146.192 -81.522C144.732 -81.7517 143.339 -82.0405 141.866 -81.7909ZM423.77 42.1309C425.658 40.7651 426.891 39.5081 428.505 37.8186C425.138 35.8256 426.716 35.2161 425.346 33.9414C424.014 34.4523 422.689 34.9783 421.372 35.5221C422.58 39.6093 421.575 40.0772 422.129 42.3636L422.545 42.5735L423.77 42.1309ZM345.52 -17.6666C344.124 -19.8897 343.447 -21.0683 342.397 -23.4837C340.976 -20.3399 341.897 -20.1274 341.232 -17.1506C341.925 -15.1399 342.871 -12.6411 345.251 -12.206C347.573 -12.9901 346.154 -16.0807 345.52 -17.6666ZM417.059 -118.25C421.601 -116.593 421.923 -118.695 420.771 -122.343C419.888 -122.925 418.83 -123.501 417.904 -124.037C416.364 -123.594 415.341 -122.649 414.342 -122.67C413.961 -122.956 413.588 -123.249 413.22 -123.551L412.639 -123.459C412.525 -122.067 415.907 -119.112 417.059 -118.25ZM161.852 -83.5826C162.217 -71.295 161.023 -58.4926 161.519 -46.5473L165.911 -46.1628C175.881 -45.1259 186.723 -45.3687 196.812 -44.9084C201.783 -44.6833 205.331 -44.3216 210.332 -44.6023C210.081 -55.4702 210.856 -66.5404 210.304 -77.4624C210.152 -80.4674 211.441 -83.141 210.624 -86.4307C209.924 -86.8497 210.304 -86.7673 209.43 -86.591C200.757 -85.8657 191.403 -86.1757 182.608 -85.6026C175.564 -85.1433 168.845 -84.1486 161.852 -83.5826ZM65.4084 -74.4563C59.6763 -73.6788 53.9415 -73.4765 48.1706 -72.659C41.0167 -71.6461 33.4479 -71.5831 26.2194 -71.0054C21.8577 -70.6569 17.1456 -70.2679 12.8008 -70.1544C11.1253 -60.4856 11.8605 -54.7216 11.9592 -45.227C15.0326 -45.9049 18.4055 -45.7784 21.5887 -45.8138C27.7625 -46.0541 34.1203 -46.4815 40.2755 -46.484C46.9246 -46.4866 53.687 -45.7658 60.3479 -45.7658C61.8512 -45.7658 63.6412 -45.8593 65.0991 -45.308C66.3355 -44.8401 67.3029 -43.3327 68.4399 -44.0813C68.7223 -45.1208 68.7733 -44.6478 68.4226 -45.5533C67.207 -46.5675 66.4768 -46.4638 65.9587 -47.4123C65.8813 -52.6451 66.4423 -56.841 66.1576 -62.3572C66.9962 -62.8048 68.3128 -63.364 68.7923 -64.1033C68.4343 -65.5761 66.4921 -65.7814 66.372 -67.1454C66.1655 -69.4958 67.1025 -72.1234 66.3304 -74.4573C65.7144 -74.6037 66.0178 -74.6348 65.4084 -74.4563ZM266.344 -40.3331C266.359 -42.4247 266.285 -45.8315 266.547 -47.8068C266.308 -50.2247 266.605 -58.1486 266.648 -60.9737L266.43 -86.5096C258.664 -86.6216 250.788 -86.8948 243.037 -86.9147C236.26 -86.9319 229.154 -86.393 222.359 -86.4646C222.705 -83.0896 222.429 -79.3067 222.408 -75.8878C222.366 -69.0428 222.078 -62.2155 221.726 -55.3817C221.533 -51.6234 221.963 -47.6905 221.909 -43.9852C232.881 -41.9872 245.625 -42.7763 256.809 -41.5344C259.841 -41.1955 263.449 -41.0944 266.344 -40.3331ZM29.3709 -38.4159C30.3997 -38.6259 32.8661 -39.4377 33.4928 -38.6613C32.0628 -34.5412 36.3672 -34.3212 37.4331 -37.03C37.3245 -38.8434 36.047 -39.4681 34.4166 -39.8879C33.1851 -39.6679 30.4159 -40.2243 28.3248 -39.9587C26.315 -39.8702 16.3486 -39.3416 15.2381 -38.7827C16.5351 -37.7963 27.4961 -37.9708 29.3709 -38.4159ZM260.237 73.3536C261.416 73.1917 261.361 73.4067 261.931 72.7339C262.175 71.1279 261.901 70.6727 261.102 69.2437C260.909 69.1703 260.561 69.0211 260.376 68.9857C259.333 70.0505 258.471 70.7587 258.415 72.2661C258.902 73.1867 259.151 73.1942 260.237 73.3536ZM406.575 111.845C407.154 109.991 408.664 109.536 407.025 107.915C406.251 108.054 405.662 108.003 405.228 108.749C404.561 109.895 403.508 111.395 404.726 112.485C405.472 112.561 405.898 112.214 406.575 111.845ZM225.31 -211.888C235.702 -211.899 245.97 -211.225 256.385 -211.793C259.009 -211.936 263.911 -211.798 266.176 -212.203C266.471 -212.52 266.501 -212.479 266.661 -212.851C266.311 -215.086 266.465 -218.49 266.493 -220.841L266.623 -233.424C266.628 -239.308 266.1 -249.274 266.511 -254.694L266.25 -255.304C265.539 -255.476 260.46 -255.556 259.252 -255.605C251.379 -255.936 243.499 -256.087 235.617 -256.056C232.538 -256.021 229.451 -255.788 226.384 -255.745C226.547 -246.62 225.478 -234.533 225.167 -225.236C225.049 -221.725 225.665 -214.662 225.31 -211.888ZM173.769 164.546C173.337 165.871 173.051 166.986 173.72 168.302L174.231 168.676C174.889 168.547 174.674 168.625 175.287 168.299C175.937 167.424 176.065 167.346 176.245 166.314C175.877 164.963 175.124 164.713 173.769 164.546ZM164.136 170.282C163.139 170.811 162.638 170.95 162.035 171.847L162.056 172.298C163.26 173.14 165.139 172.793 166.616 172.738C172.669 172.51 178.726 172.174 184.783 172.022C186.649 171.906 187.322 171.82 189.142 171.405C184.729 170.623 177.775 170.99 173.042 170.679C170.656 170.522 166.259 170.125 164.136 170.282ZM382.916 -144.076C382.951 -142.257 382.685 -140.491 384.768 -139.805C386.331 -139.995 386.668 -140.491 386.564 -142.04C386.087 -142.79 386.085 -142.8 385.438 -143.407C384.471 -144.139 384.017 -144.204 382.916 -144.076ZM293.127 -74.5395C294.786 -74.6687 296.643 -74.9742 296.559 -76.9429C295.494 -78.4923 294.613 -78.1691 293.39 -77.2798C292.771 -76.1149 292.533 -76.1339 292.611 -75.0395L293.127 -74.5395ZM185.998 22.3021C186.854 21.6116 186.64 22.0239 186.91 21.1589C186.298 20.2964 185.059 19.9778 184.044 19.9373C183.288 21.0931 183.329 20.6885 183.272 21.9126C184.041 23.3441 184.843 23.0356 185.998 22.3021ZM334.881 28.3999C334.323 29.6038 333.796 30.6914 333.341 31.9433C334.912 33.3571 336.779 32.9322 338.614 32.2266C337.959 31.1972 335.866 29.3357 334.881 28.3999ZM161.905 -91.8236C168.219 -91.4273 172.603 -92.6664 178.641 -93.1178C185.285 -93.6148 192.082 -93.6826 198.771 -94.2074C202.73 -94.3718 207.892 -95.3544 211.395 -94.8377C211.863 -95.7732 211.751 -103.218 211.902 -104.856C212.423 -110.466 212.528 -116.134 212.871 -121.76C213.011 -124.056 213.449 -126.685 213.394 -128.903C212.736 -129.596 210.985 -129.468 209.978 -129.481C197.79 -129.636 185.537 -129.906 173.352 -129.561C169.95 -129.491 164.579 -129.227 161.334 -129.445C161.633 -127.103 161.401 -124.885 161.33 -122.547C161.022 -112.378 162.17 -101.984 161.905 -91.8236ZM289.958 -230.978C292.908 -232.091 292.748 -233.738 291.49 -236.298C289.94 -235.501 288.017 -232.508 288.438 -230.879L288.861 -230.591C289.364 -230.738 289.491 -230.749 289.958 -230.978ZM353.147 -184.538C352.162 -183.383 351.399 -182.718 351.368 -181.165C351.782 -180.256 351.711 -180.17 352.82 -179.706C354.05 -180.177 355.387 -180.373 355.616 -181.761C355.08 -182.924 354.116 -183.54 353.147 -184.538ZM221.889 -129.477C221.776 -119.413 222.007 -109.5 222.411 -99.4393C222.462 -98.1544 222.473 -97.0499 222.374 -95.7654C225.92 -95.6326 229.407 -95.4922 232.958 -95.471C235.151 -95.4576 239.015 -95.8721 241.06 -95.628L241.154 -95.3078C240.586 -94.5101 239.467 -93.1651 239.34 -92.2776C239.599 -91.8856 239.53 -91.808 240.04 -91.6977C240.786 -91.5371 241.251 -91.6598 241.87 -92.0973C242.872 -92.8078 243.488 -95.0992 244.331 -95.474C246.178 -96.2942 264.948 -94.5665 266.592 -96.2588C266.382 -98.4966 266.448 -101.199 266.529 -103.468C266.805 -111.351 266.382 -119.288 266.536 -127.155C266.493 -127.919 266.44 -128.679 266.43 -129.445C252.924 -129.626 239.48 -129.866 225.977 -129.447C224.611 -129.405 223.255 -129.383 221.889 -129.477ZM221.416 26.364C221.555 33.0764 220.867 40.0064 220.798 46.7947C220.74 52.5739 221.866 59.8098 221.423 65.3234C233.896 65.5258 246.32 65.7888 258.79 65.4322C261.358 65.3589 263.961 65.3513 266.531 65.3361C266.285 60.8165 266.587 55.9857 266.577 51.4332C266.559 43.9038 266.689 36.028 266.354 28.5087C259.376 27.841 225.049 27.9118 221.416 26.364ZM173.289 129.934C169.48 129.982 165.671 130.086 161.864 130.248C162.487 136.5 162.297 143.862 162.379 150.231C162.422 153.567 162.668 160.163 162.419 163.236C167.432 163.539 172.379 163.208 177.282 163.547C185.786 164.131 194.055 164.682 202.582 164.885C205.75 165.105 210.127 165.502 213.253 165.413C213.257 159.634 213.73 153.845 213.749 148.136C213.769 142.211 213.31 135.961 213.228 129.984C208.083 130.146 202.252 129.911 197.059 129.833C189.136 129.724 181.211 129.757 173.289 129.934ZM451.497 -32.3839C452.172 -34.4173 449.185 -35.0243 447.686 -35.1457C447.46 -33.9393 447.412 -34.5084 447.795 -33.3728C448.85 -32.2523 450.025 -32.1891 451.497 -32.3839ZM220.599 78.2501C220.728 84.4491 220.245 91.0756 220.276 97.4289C220.315 101.397 220.38 105.368 220.47 109.336C220.514 111.362 220.725 114.521 220.424 116.41C234.106 117.113 247.814 118.125 261.472 119.134C262.982 119.246 264.669 119.185 266.194 119.149C266.29 119.043 266.547 118.783 266.597 118.674C266.197 116.696 266.592 104.111 266.646 101.397C266.575 94.7732 266.199 85.7339 266.463 79.3705C251.169 79.416 235.874 79.0417 220.599 78.2501ZM266.625 11.6112C266.377 10.8221 266.422 -20.6231 266.531 -23.8681C266.443 -24.8924 266.608 -25.4008 266.049 -25.9445C254.736 -28.3928 241.121 -27.4241 229.561 -29.3918C227.15 -29.8016 224.422 -29.8066 221.925 -30.1759C221.914 -20.087 221.666 -10.2459 220.917 -0.184845C220.642 3.50018 221.616 7.63538 221.463 11.328C230.546 12.4358 239.178 12.6331 248.317 12.9037C252.813 13.0403 261.931 13.761 266.148 13.3918C266.668 12.8379 266.519 12.5647 266.625 11.6112ZM212.887 115.502C212.021 108.722 212.559 101.42 212.063 94.5583C211.674 89.1787 211.818 83.5664 211.454 78.2071C207.861 77.3143 201.714 77.0057 197.956 76.7857C189.169 76.2697 180.309 76.0042 171.509 75.7386C169.494 75.6779 162.67 74.8408 161.678 75.0001C160.831 75.1089 159.729 75.1316 159.117 75.6375C158.599 78.0882 159.203 83.5032 159.279 86.1689C159.567 96.1415 160.519 105.292 161.604 115.171C171.55 114.895 182.662 115.351 192.678 115.47C200.061 115.555 201.71 116.931 210.066 115.722L212.887 115.502Z" fill="#E47C64"/>
<path d="M298.596 129.808C306.584 129.297 316.179 129.353 324.222 129.307C337.071 129.272 349.917 129.115 362.76 128.837C362.73 131.803 362.618 135.577 362.433 138.389C362.199 141.882 360.091 157.404 360.915 159.819C355.805 161.537 349.686 165.664 344.457 167.594C342.551 168.3 339.476 167.703 337.989 169.228C338.596 171.031 337.578 172.397 335.658 172.812C333.914 173.186 333.732 171.031 333.564 169.681L333.229 169.544L332.336 169.944C321.563 170.159 307.436 169.4 296.48 169.175C296.902 165.399 297.051 160.717 297.277 156.878C297.845 147.861 298.287 138.837 298.596 129.808Z" fill="#F28B72"/>
<path d="M333.565 169.68C334.831 170.156 336.396 170.189 337.711 169.875L337.99 169.227C338.596 171.031 337.579 172.397 335.658 172.811C333.915 173.186 333.732 171.031 333.565 169.68Z" fill="#E47C64"/>
<path d="M266.833 180.399L281.714 180.697C281.902 183.431 282.229 185.834 282.584 188.54C279.407 189.304 276.14 189.878 272.892 190.242C270.235 190.541 267.112 190.49 266.836 187.23C266.985 184.896 266.836 182.713 266.833 180.399Z" fill="#F28B72"/>
<path d="M358.434 75.5392L358.81 75.8402C359.86 78.8018 360.634 95.76 360.964 99.8294C361.441 105.722 362.39 114.155 362.445 119.931C342.566 120.26 321.606 119.898 301.654 119.84L298.409 119.818C298.048 106.147 297.196 92.3962 296.742 78.7209C307.091 78.2783 316.966 77.5929 327.275 76.8114C337.512 76.0374 348.1 76.2398 358.434 75.5392Z" fill="#F28B72"/>
<path d="M292.749 -23.0353C298.752 -22.79 304.488 -22.441 310.441 -21.6291C320.338 -20.281 331.159 -20.4126 340.961 -18.6168L341.232 -17.1499C341.925 -15.1392 342.871 -12.6404 345.251 -12.2054C347.573 -12.9894 346.154 -16.0801 345.52 -17.6659C346.603 -18.6169 350.529 -17.9239 352.104 -17.7924C352.548 -6.81824 352.535 6.8444 353.446 17.5277C333.273 17.257 313.429 15.5701 293.411 15.1781C292.898 2.42595 293.269 -10.397 292.749 -23.0353Z" fill="#F28B72"/>
<path d="M293.971 29.4123C304.526 29.4401 314.581 30.2191 325.161 30.2292C325.529 31.2915 325.43 31.686 326.541 31.4862C327.135 30.9172 327.242 30.8337 327.927 30.3785C328.546 30.2672 332.56 31.0462 333.095 31.2637L333.341 31.944C334.912 33.3578 336.779 32.9329 338.614 32.2273C340.438 31.595 352.873 31.9845 354.666 33.0594C355.405 35.3205 355.699 45.374 356.047 48.4924C356.719 54.5422 357.422 60.8146 357.995 66.8745C337.152 66.5154 316.309 66.0171 295.473 65.3798C294.821 54.0819 294.098 40.6975 293.971 29.4123Z" fill="#F28B72"/>
<path d="M451.172 -12.9777C454.859 -13.0257 458.548 -13.0004 462.234 -12.9043C462.48 -5.18273 462.569 2.54391 462.501 10.268C462.501 14.0213 462.356 19.1075 462.623 22.7571C451.591 21.7227 439.229 22.3171 428.22 21.3079C423.537 21.1486 418.734 20.8602 414.037 20.6503C414.083 9.88105 414.24 -0.885662 414.507 -11.6499C427.49 -11.4678 438.41 -12.7855 451.172 -12.9777Z" fill="#F28B72"/>
<path d="M370.133 74.2338C381.358 74.5424 395.051 73.5029 406.573 73.3941C406.337 82.5498 406.667 92.1429 406.641 101.334C406.634 103.514 407.027 105.795 407.024 107.915C406.251 108.054 405.662 108.003 405.228 108.75C404.561 109.895 403.508 111.395 404.726 112.485C405.472 112.561 405.898 112.215 406.575 111.845C407.169 112.905 406.882 117.435 406.857 118.889C394.734 119.079 383.662 120.396 370.92 120.037C370.895 110.793 370.801 101.549 370.633 92.3048C370.547 86.556 370.544 79.922 370.133 74.2338Z" fill="#F28B72"/>
<path d="M365.171 -16.3512C370.075 -16.1412 374.975 -15.7973 379.861 -15.3193C388.186 -14.4543 396.881 -13.2175 405.254 -12.8356C405.492 -1.67685 406.342 8.96086 406.67 19.9603C404.358 19.7377 382.888 18.3365 382.426 18.0786C385.831 12.6434 378.973 11.1714 375.896 8.17936L373.498 11.4471C374.734 13.3971 375.551 15.3293 376.398 17.4716C374.8 18.1797 368.647 17.7296 366.594 17.5803C365.645 7.93656 365.113 -6.77316 365.171 -16.3512Z" fill="#F28B72"/>
<path d="M367.766 32.914C380.708 33.43 393.663 33.5311 406.613 33.2175C406.486 37.3881 406.961 65.1863 406.304 66.2562C394.602 66.5243 381.469 67.412 369.948 67.3007C368.989 56.9336 367.9 43.2406 367.766 32.914Z" fill="#F28B72"/>
<path d="M266.531 -23.8684C266.64 -24.5842 266.64 -25.6161 267.087 -25.9525C272.288 -25.8007 280.095 -24.8674 285.198 -24.134C285.124 -22.2776 285.302 -15.8206 284.649 -14.6344L284.063 -14.4447C283.084 -15.1427 282.308 -15.7295 281.242 -16.3087L280.351 -13.1118C281.762 -12.5681 282.475 -12.1937 283.995 -12.0926L285.228 -11.9433C284.873 -9.2523 284.926 -5.88088 284.908 -3.12913C284.87 2.76639 284.629 8.801 284.751 14.6839C279.618 14.1325 271.867 14.4006 267.168 13.5812C266.732 13.0323 266.732 12.3368 266.625 11.6109C266.376 10.8218 266.422 -20.6235 266.531 -23.8684Z" fill="#F28B72"/>
<path d="M266.783 79.1763C271.999 79.2067 277.614 79.3003 282.808 79.1688C282.544 92.7378 281.94 106.299 280.999 119.838C278.626 119.8 267.427 120.081 266.597 118.675C266.197 116.697 266.592 104.112 266.646 101.398C267.252 100.434 266.747 81.9483 266.783 79.1763Z" fill="#F28B72"/>
<path d="M266.808 130.045C270.85 129.655 276.767 129.83 281.001 129.827C280.892 142.956 280.732 155.306 281.108 168.42C276.419 168.16 271.563 168.152 266.841 167.99C266.785 166.096 266.76 164.204 266.542 162.322C266.329 160.081 266.597 153.066 266.615 150.483C266.656 144.909 266.349 138.573 266.547 133.1L266.808 130.045Z" fill="#F28B72"/>
<path d="M288.64 129.883L290.607 128.786C292.2 134.656 289.582 149.834 289.929 156.521C290.005 157.993 289.445 166.271 289.166 167.432L288.94 167.606C288.481 166.033 288.526 161.787 288.486 159.991C288.303 152.269 288.615 144.452 288.514 136.735C288.491 135.084 288.729 131.092 288.64 129.883Z" fill="#F28B72"/>
<path d="M367.469 24.6875C372.135 24.5965 376.88 25.0719 381.558 25.2667C386.787 25.4842 392.727 25.2338 397.847 26.2328L397.644 26.5262C395.094 27.1155 369.293 26.6173 367.428 25.3122L367.469 24.6875Z" fill="#F28B72"/>
</svg>
